solid OpenSCAD_Model
  facet normal -1 0 0
    outer loop
      vertex -21.5 -8 -1
      vertex -21.5 8 1
      vertex -21.5 8 -1
    endloop
  endfacet
  facet normal -1 -0 0
    outer loop
      vertex -21.5 8 1
      vertex -21.5 -8 -1
      vertex -21.5 -8 1
    endloop
  endfacet
  facet normal 1 -0 0
    outer loop
      vertex -36.5 -8 1
      vertex -36.5 8 -1
      vertex -36.5 8 1
    endloop
  endfacet
  facet normal 1 0 0
    outer loop
      vertex -36.5 8 -1
      vertex -36.5 -8 1
      vertex -36.5 -8 -1
    endloop
  endfacet
  facet normal 0 -1 0
    outer loop
      vertex -36.5 8 -1
      vertex -21.5 8 1
      vertex -36.5 8 1
    endloop
  endfacet
  facet normal 0 -1 -0
    outer loop
      vertex -21.5 8 1
      vertex -36.5 8 -1
      vertex -21.5 8 -1
    endloop
  endfacet
  facet normal 0 1 -0
    outer loop
      vertex -21.5 -8 -1
      vertex -36.5 -8 1
      vertex -21.5 -8 1
    endloop
  endfacet
  facet normal 0 1 0
    outer loop
      vertex -36.5 -8 1
      vertex -21.5 -8 -1
      vertex -36.5 -8 -1
    endloop
  endfacet
  facet normal -1 0 0
    outer loop
      vertex -2.5 -8 -1
      vertex -2.5 8 1
      vertex -2.5 8 -1
    endloop
  endfacet
  facet normal -1 -0 0
    outer loop
      vertex -2.5 8 1
      vertex -2.5 -8 -1
      vertex -2.5 -8 1
    endloop
  endfacet
  facet normal 1 -0 0
    outer loop
      vertex -17.5 -8 1
      vertex -17.5 8 -1
      vertex -17.5 8 1
    endloop
  endfacet
  facet normal 1 0 0
    outer loop
      vertex -17.5 8 -1
      vertex -17.5 -8 1
      vertex -17.5 -8 -1
    endloop
  endfacet
  facet normal 0 -1 0
    outer loop
      vertex -17.5 8 -1
      vertex -2.5 8 1
      vertex -17.5 8 1
    endloop
  endfacet
  facet normal 0 -1 -0
    outer loop
      vertex -2.5 8 1
      vertex -17.5 8 -1
      vertex -2.5 8 -1
    endloop
  endfacet
  facet normal 0 1 -0
    outer loop
      vertex -2.5 -8 -1
      vertex -17.5 -8 1
      vertex -2.5 -8 1
    endloop
  endfacet
  facet normal 0 1 0
    outer loop
      vertex -17.5 -8 1
      vertex -2.5 -8 -1
      vertex -17.5 -8 -1
    endloop
  endfacet
  facet normal -1 0 0
    outer loop
      vertex 16.5 -8 -1
      vertex 16.5 8 1
      vertex 16.5 8 -1
    endloop
  endfacet
  facet normal -1 -0 0
    outer loop
      vertex 16.5 8 1
      vertex 16.5 -8 -1
      vertex 16.5 -8 1
    endloop
  endfacet
  facet normal 1 -0 0
    outer loop
      vertex 1.5 -8 1
      vertex 1.5 8 -1
      vertex 1.5 8 1
    endloop
  endfacet
  facet normal 1 0 0
    outer loop
      vertex 1.5 8 -1
      vertex 1.5 -8 1
      vertex 1.5 -8 -1
    endloop
  endfacet
  facet normal 0 -1 0
    outer loop
      vertex 1.5 8 -1
      vertex 16.5 8 1
      vertex 1.5 8 1
    endloop
  endfacet
  facet normal 0 -1 -0
    outer loop
      vertex 16.5 8 1
      vertex 1.5 8 -1
      vertex 16.5 8 -1
    endloop
  endfacet
  facet normal 0 1 -0
    outer loop
      vertex 16.5 -8 -1
      vertex 1.5 -8 1
      vertex 16.5 -8 1
    endloop
  endfacet
  facet normal 0 1 0
    outer loop
      vertex 1.5 -8 1
      vertex 16.5 -8 -1
      vertex 1.5 -8 -1
    endloop
  endfacet
  facet normal -1 0 0
    outer loop
      vertex 35.5 -8 -1
      vertex 35.5 8 1
      vertex 35.5 8 -1
    endloop
  endfacet
  facet normal -1 -0 0
    outer loop
      vertex 35.5 8 1
      vertex 35.5 -8 -1
      vertex 35.5 -8 1
    endloop
  endfacet
  facet normal 1 -0 0
    outer loop
      vertex 20.5 -8 1
      vertex 20.5 8 -1
      vertex 20.5 8 1
    endloop
  endfacet
  facet normal 1 0 0
    outer loop
      vertex 20.5 8 -1
      vertex 20.5 -8 1
      vertex 20.5 -8 -1
    endloop
  endfacet
  facet normal 0 -1 0
    outer loop
      vertex 20.5 8 -1
      vertex 35.5 8 1
      vertex 20.5 8 1
    endloop
  endfacet
  facet normal 0 -1 -0
    outer loop
      vertex 35.5 8 1
      vertex 20.5 8 -1
      vertex 35.5 8 -1
    endloop
  endfacet
  facet normal 0 1 -0
    outer loop
      vertex 35.5 -8 -1
      vertex 20.5 -8 1
      vertex 35.5 -8 1
    endloop
  endfacet
  facet normal 0 1 0
    outer loop
      vertex 20.5 -8 1
      vertex 35.5 -8 -1
      vertex 20.5 -8 -1
    endloop
  endfacet
  facet normal 1 -0 0
    outer loop
      vertex 47.5 -11 1
      vertex 47.5 11 -1
      vertex 47.5 11 1
    endloop
  endfacet
  facet normal 1 0 0
    outer loop
      vertex 47.5 11 -1
      vertex 47.5 -11 1
      vertex 47.5 -11 -1
    endloop
  endfacet
  facet normal 0 0 1
    outer loop
      vertex 47.5 11 1
      vertex 46 -1 1
      vertex 47.5 -11 1
    endloop
  endfacet
  facet normal 0 0 1
    outer loop
      vertex 47.5 11 1
      vertex 45.9743 -0.608421 1
      vertex 46 -1 1
    endloop
  endfacet
  facet normal 0 0 1
    outer loop
      vertex 47.5 11 1
      vertex 45.8978 -0.223542 1
      vertex 45.9743 -0.608421 1
    endloop
  endfacet
  facet normal 0 0 1
    outer loop
      vertex 47.5 11 1
      vertex 45.7716 0.148049 1
      vertex 45.8978 -0.223542 1
    endloop
  endfacet
  facet normal 0 0 1
    outer loop
      vertex 47.5 11 1
      vertex 45.5981 0.5 1
      vertex 45.7716 0.148049 1
    endloop
  endfacet
  facet normal 0 0 1
    outer loop
      vertex 47.5 11 1
      vertex 45.3801 0.826283 1
      vertex 45.5981 0.5 1
    endloop
  endfacet
  facet normal 0 0 1
    outer loop
      vertex 47.5 11 1
      vertex 45.1213 1.12132 1
      vertex 45.3801 0.826283 1
    endloop
  endfacet
  facet normal 0 0 1
    outer loop
      vertex 47.5 11 1
      vertex 44.8263 1.38006 1
      vertex 45.1213 1.12132 1
    endloop
  endfacet
  facet normal 0 0 1
    outer loop
      vertex 47.5 11 1
      vertex 44.5 1.59808 1
      vertex 44.8263 1.38006 1
    endloop
  endfacet
  facet normal 0 0 1
    outer loop
      vertex 47.5 11 1
      vertex 44.148 1.77164 1
      vertex 44.5 1.59808 1
    endloop
  endfacet
  facet normal 0 0 1
    outer loop
      vertex 47.5 11 1
      vertex 43.7765 1.89778 1
      vertex 44.148 1.77164 1
    endloop
  endfacet
  facet normal 0 0 1
    outer loop
      vertex 47.5 11 1
      vertex 43.3916 1.97433 1
      vertex 43.7765 1.89778 1
    endloop
  endfacet
  facet normal 0 0 1
    outer loop
      vertex 47.5 11 1
      vertex 43 2 1
      vertex 43.3916 1.97433 1
    endloop
  endfacet
  facet normal 0 0 1
    outer loop
      vertex 47.5 11 1
      vertex 42.6084 1.97433 1
      vertex 43 2 1
    endloop
  endfacet
  facet normal -0 0 1
    outer loop
      vertex 35.5 8 1
      vertex 42.6084 1.97433 1
      vertex 47.5 11 1
    endloop
  endfacet
  facet normal 0 0 1
    outer loop
      vertex 42.6084 1.97433 1
      vertex 35.5 8 1
      vertex 42.2235 1.89778 1
    endloop
  endfacet
  facet normal 0 0 1
    outer loop
      vertex 42.2235 1.89778 1
      vertex 35.5 8 1
      vertex 41.852 1.77164 1
    endloop
  endfacet
  facet normal 0 0 1
    outer loop
      vertex 41.852 1.77164 1
      vertex 35.5 8 1
      vertex 41.5 1.59808 1
    endloop
  endfacet
  facet normal 0 0 1
    outer loop
      vertex 41.5 1.59808 1
      vertex 35.5 8 1
      vertex 41.1737 1.38006 1
    endloop
  endfacet
  facet normal 0 0 1
    outer loop
      vertex 41.1737 1.38006 1
      vertex 35.5 8 1
      vertex 40.8787 1.12132 1
    endloop
  endfacet
  facet normal 0 0 1
    outer loop
      vertex 35.5 -8 1
      vertex 40.0257 -0.608421 1
      vertex 35.5 8 1
    endloop
  endfacet
  facet normal 0 0 1
    outer loop
      vertex 40.1022 -0.223542 1
      vertex 35.5 8 1
      vertex 40.0257 -0.608421 1
    endloop
  endfacet
  facet normal 0 0 1
    outer loop
      vertex 40.2284 0.148049 1
      vertex 35.5 8 1
      vertex 40.1022 -0.223542 1
    endloop
  endfacet
  facet normal 0 0 1
    outer loop
      vertex 40.4019 0.5 1
      vertex 35.5 8 1
      vertex 40.2284 0.148049 1
    endloop
  endfacet
  facet normal 0 0 1
    outer loop
      vertex 40.6199 0.826283 1
      vertex 35.5 8 1
      vertex 40.4019 0.5 1
    endloop
  endfacet
  facet normal 0 0 1
    outer loop
      vertex 40.8787 1.12132 1
      vertex 35.5 8 1
      vertex 40.6199 0.826283 1
    endloop
  endfacet
  facet normal 0 0 1
    outer loop
      vertex 47.5 11 1
      vertex 20.5 8 1
      vertex 35.5 8 1
    endloop
  endfacet
  facet normal 0 0 1
    outer loop
      vertex 20.5 8 1
      vertex 16.5 8 1
      vertex 20.5 -8 1
    endloop
  endfacet
  facet normal 0 0 1
    outer loop
      vertex 47.5 11 1
      vertex 16.5 8 1
      vertex 20.5 8 1
    endloop
  endfacet
  facet normal 0 0 1
    outer loop
      vertex 47.5 11 1
      vertex 1.5 8 1
      vertex 16.5 8 1
    endloop
  endfacet
  facet normal 0 0 1
    outer loop
      vertex 1.5 8 1
      vertex -2.5 8 1
      vertex 1.5 -8 1
    endloop
  endfacet
  facet normal 0 0 1
    outer loop
      vertex 47.5 11 1
      vertex -2.5 8 1
      vertex 1.5 8 1
    endloop
  endfacet
  facet normal -0 0 1
    outer loop
      vertex -47.5 11 1
      vertex -2.5 8 1
      vertex 47.5 11 1
    endloop
  endfacet
  facet normal 0 0 1
    outer loop
      vertex -17.5 8 1
      vertex -21.5 8 1
      vertex -17.5 -8 1
    endloop
  endfacet
  facet normal 0 0 1
    outer loop
      vertex -2.5 8 1
      vertex -47.5 11 1
      vertex -17.5 8 1
    endloop
  endfacet
  facet normal 0 0 1
    outer loop
      vertex -17.5 8 1
      vertex -47.5 11 1
      vertex -21.5 8 1
    endloop
  endfacet
  facet normal 0 0 1
    outer loop
      vertex -36.5 8 1
      vertex -39.5 -1 1
      vertex -36.5 -8 1
    endloop
  endfacet
  facet normal 0 0 1
    outer loop
      vertex -36.5 8 1
      vertex -39.5257 -0.608421 1
      vertex -39.5 -1 1
    endloop
  endfacet
  facet normal 0 0 1
    outer loop
      vertex -36.5 8 1
      vertex -39.6022 -0.223542 1
      vertex -39.5257 -0.608421 1
    endloop
  endfacet
  facet normal 0 0 1
    outer loop
      vertex -36.5 8 1
      vertex -39.7284 0.148049 1
      vertex -39.6022 -0.223542 1
    endloop
  endfacet
  facet normal 0 0 1
    outer loop
      vertex -36.5 8 1
      vertex -39.9019 0.5 1
      vertex -39.7284 0.148049 1
    endloop
  endfacet
  facet normal 0 0 1
    outer loop
      vertex -36.5 8 1
      vertex -40.1199 0.826283 1
      vertex -39.9019 0.5 1
    endloop
  endfacet
  facet normal 0 0 1
    outer loop
      vertex -36.5 8 1
      vertex -40.3787 1.12132 1
      vertex -40.1199 0.826283 1
    endloop
  endfacet
  facet normal 0 0 1
    outer loop
      vertex -36.5 8 1
      vertex -40.6737 1.38006 1
      vertex -40.3787 1.12132 1
    endloop
  endfacet
  facet normal 0 0 1
    outer loop
      vertex -36.5 8 1
      vertex -41 1.59808 1
      vertex -40.6737 1.38006 1
    endloop
  endfacet
  facet normal 0 0 1
    outer loop
      vertex -36.5 8 1
      vertex -41.352 1.77164 1
      vertex -41 1.59808 1
    endloop
  endfacet
  facet normal 0 0 1
    outer loop
      vertex -36.5 8 1
      vertex -41.7235 1.89778 1
      vertex -41.352 1.77164 1
    endloop
  endfacet
  facet normal 0 0 1
    outer loop
      vertex -36.5 8 1
      vertex -42.1084 1.97433 1
      vertex -41.7235 1.89778 1
    endloop
  endfacet
  facet normal 0 0 1
    outer loop
      vertex -36.5 8 1
      vertex -42.5 2 1
      vertex -42.1084 1.97433 1
    endloop
  endfacet
  facet normal 0 0 1
    outer loop
      vertex -47.5 11 1
      vertex -42.5 2 1
      vertex -36.5 8 1
    endloop
  endfacet
  facet normal 0 0 1
    outer loop
      vertex -42.5 2 1
      vertex -47.5 11 1
      vertex -42.8916 1.97433 1
    endloop
  endfacet
  facet normal 0 0 1
    outer loop
      vertex -42.8916 1.97433 1
      vertex -47.5 11 1
      vertex -43.2765 1.89778 1
    endloop
  endfacet
  facet normal 0 0 1
    outer loop
      vertex -43.2765 1.89778 1
      vertex -47.5 11 1
      vertex -43.648 1.77164 1
    endloop
  endfacet
  facet normal 0 0 1
    outer loop
      vertex -43.648 1.77164 1
      vertex -47.5 11 1
      vertex -44 1.59808 1
    endloop
  endfacet
  facet normal 0 0 1
    outer loop
      vertex -45.4743 -0.608421 1
      vertex -47.5 11 1
      vertex -45.5 -1 1
    endloop
  endfacet
  facet normal 0 0 1
    outer loop
      vertex -45.3978 -0.223542 1
      vertex -47.5 11 1
      vertex -45.4743 -0.608421 1
    endloop
  endfacet
  facet normal 0 0 1
    outer loop
      vertex -45.2716 0.148049 1
      vertex -47.5 11 1
      vertex -45.3978 -0.223542 1
    endloop
  endfacet
  facet normal 0 0 1
    outer loop
      vertex -45.0981 0.5 1
      vertex -47.5 11 1
      vertex -45.2716 0.148049 1
    endloop
  endfacet
  facet normal 0 0 1
    outer loop
      vertex -44.8801 0.826283 1
      vertex -47.5 11 1
      vertex -45.0981 0.5 1
    endloop
  endfacet
  facet normal 0 0 1
    outer loop
      vertex -44.6213 1.12132 1
      vertex -47.5 11 1
      vertex -44.8801 0.826283 1
    endloop
  endfacet
  facet normal 0 0 1
    outer loop
      vertex -44.3263 1.38006 1
      vertex -47.5 11 1
      vertex -44.6213 1.12132 1
    endloop
  endfacet
  facet normal 0 0 1
    outer loop
      vertex -44 1.59808 1
      vertex -47.5 11 1
      vertex -44.3263 1.38006 1
    endloop
  endfacet
  facet normal 0 0 1
    outer loop
      vertex -21.5 8 1
      vertex -47.5 11 1
      vertex -36.5 8 1
    endloop
  endfacet
  facet normal -0 0 1
    outer loop
      vertex 45.9743 -1.39158 1
      vertex 47.5 -11 1
      vertex 46 -1 1
    endloop
  endfacet
  facet normal -0 0 1
    outer loop
      vertex 45.8978 -1.77646 1
      vertex 47.5 -11 1
      vertex 45.9743 -1.39158 1
    endloop
  endfacet
  facet normal -0 0 1
    outer loop
      vertex 45.7716 -2.14805 1
      vertex 47.5 -11 1
      vertex 45.8978 -1.77646 1
    endloop
  endfacet
  facet normal -0 0 1
    outer loop
      vertex 45.5981 -2.5 1
      vertex 47.5 -11 1
      vertex 45.7716 -2.14805 1
    endloop
  endfacet
  facet normal -0 0 1
    outer loop
      vertex 45.3801 -2.82628 1
      vertex 47.5 -11 1
      vertex 45.5981 -2.5 1
    endloop
  endfacet
  facet normal -0 0 1
    outer loop
      vertex 45.1213 -3.12132 1
      vertex 47.5 -11 1
      vertex 45.3801 -2.82628 1
    endloop
  endfacet
  facet normal -0 0 1
    outer loop
      vertex 44.8263 -3.38006 1
      vertex 47.5 -11 1
      vertex 45.1213 -3.12132 1
    endloop
  endfacet
  facet normal -0 0 1
    outer loop
      vertex 44.5 -3.59808 1
      vertex 47.5 -11 1
      vertex 44.8263 -3.38006 1
    endloop
  endfacet
  facet normal -0 0 1
    outer loop
      vertex 44.148 -3.77164 1
      vertex 47.5 -11 1
      vertex 44.5 -3.59808 1
    endloop
  endfacet
  facet normal -0 0 1
    outer loop
      vertex 43.7765 -3.89778 1
      vertex 47.5 -11 1
      vertex 44.148 -3.77164 1
    endloop
  endfacet
  facet normal -0 0 1
    outer loop
      vertex 43.3916 -3.97433 1
      vertex 47.5 -11 1
      vertex 43.7765 -3.89778 1
    endloop
  endfacet
  facet normal -0 0 1
    outer loop
      vertex 43 -4 1
      vertex 47.5 -11 1
      vertex 43.3916 -3.97433 1
    endloop
  endfacet
  facet normal 0 0 1
    outer loop
      vertex 42.6084 -3.97433 1
      vertex 47.5 -11 1
      vertex 43 -4 1
    endloop
  endfacet
  facet normal 0 0 1
    outer loop
      vertex 35.5 -8 1
      vertex 42.6084 -3.97433 1
      vertex 42.2235 -3.89778 1
    endloop
  endfacet
  facet normal 0 0 1
    outer loop
      vertex 35.5 -8 1
      vertex 42.2235 -3.89778 1
      vertex 41.852 -3.77164 1
    endloop
  endfacet
  facet normal 0 0 1
    outer loop
      vertex 35.5 -8 1
      vertex 41.852 -3.77164 1
      vertex 41.5 -3.59808 1
    endloop
  endfacet
  facet normal 0 0 1
    outer loop
      vertex 35.5 -8 1
      vertex 41.5 -3.59808 1
      vertex 41.1737 -3.38006 1
    endloop
  endfacet
  facet normal 0 0 1
    outer loop
      vertex 35.5 -8 1
      vertex 41.1737 -3.38006 1
      vertex 40.8787 -3.12132 1
    endloop
  endfacet
  facet normal 0 0 1
    outer loop
      vertex 35.5 -8 1
      vertex 40.8787 -3.12132 1
      vertex 40.6199 -2.82628 1
    endloop
  endfacet
  facet normal 0 0 1
    outer loop
      vertex 40.0257 -0.608421 1
      vertex 35.5 -8 1
      vertex 40 -1 1
    endloop
  endfacet
  facet normal 0 0 1
    outer loop
      vertex 40 -1 1
      vertex 35.5 -8 1
      vertex 40.0257 -1.39158 1
    endloop
  endfacet
  facet normal 0 0 1
    outer loop
      vertex 40.0257 -1.39158 1
      vertex 35.5 -8 1
      vertex 40.1022 -1.77646 1
    endloop
  endfacet
  facet normal 0 0 1
    outer loop
      vertex 40.1022 -1.77646 1
      vertex 35.5 -8 1
      vertex 40.2284 -2.14805 1
    endloop
  endfacet
  facet normal 0 0 1
    outer loop
      vertex 35.5 -8 1
      vertex 40.4019 -2.5 1
      vertex 40.2284 -2.14805 1
    endloop
  endfacet
  facet normal 0 0 1
    outer loop
      vertex 35.5 -8 1
      vertex 40.6199 -2.82628 1
      vertex 40.4019 -2.5 1
    endloop
  endfacet
  facet normal 0 0 1
    outer loop
      vertex 42.6084 -3.97433 1
      vertex 35.5 -8 1
      vertex 47.5 -11 1
    endloop
  endfacet
  facet normal -0 0 1
    outer loop
      vertex 20.5 -8 1
      vertex 47.5 -11 1
      vertex 35.5 -8 1
    endloop
  endfacet
  facet normal 0 0 1
    outer loop
      vertex 16.5 -8 1
      vertex 20.5 -8 1
      vertex 16.5 8 1
    endloop
  endfacet
  facet normal -0 0 1
    outer loop
      vertex 16.5 -8 1
      vertex 47.5 -11 1
      vertex 20.5 -8 1
    endloop
  endfacet
  facet normal -0 0 1
    outer loop
      vertex 1.5 -8 1
      vertex 47.5 -11 1
      vertex 16.5 -8 1
    endloop
  endfacet
  facet normal 0 0 1
    outer loop
      vertex -2.5 -8 1
      vertex 1.5 -8 1
      vertex -2.5 8 1
    endloop
  endfacet
  facet normal -0 0 1
    outer loop
      vertex -2.5 -8 1
      vertex 47.5 -11 1
      vertex 1.5 -8 1
    endloop
  endfacet
  facet normal 0 0 1
    outer loop
      vertex -47.5 -11 1
      vertex -2.5 -8 1
      vertex -17.5 -8 1
    endloop
  endfacet
  facet normal 0 0 1
    outer loop
      vertex -21.5 -8 1
      vertex -17.5 -8 1
      vertex -21.5 8 1
    endloop
  endfacet
  facet normal 0 0 1
    outer loop
      vertex -47.5 -11 1
      vertex -17.5 -8 1
      vertex -21.5 -8 1
    endloop
  endfacet
  facet normal 0 0 1
    outer loop
      vertex -47.5 -11 1
      vertex -21.5 -8 1
      vertex -36.5 -8 1
    endloop
  endfacet
  facet normal -0 0 1
    outer loop
      vertex -39.5257 -1.39158 1
      vertex -36.5 -8 1
      vertex -39.5 -1 1
    endloop
  endfacet
  facet normal -0 0 1
    outer loop
      vertex -39.6022 -1.77646 1
      vertex -36.5 -8 1
      vertex -39.5257 -1.39158 1
    endloop
  endfacet
  facet normal -0 0 1
    outer loop
      vertex -39.7284 -2.14805 1
      vertex -36.5 -8 1
      vertex -39.6022 -1.77646 1
    endloop
  endfacet
  facet normal -0 0 1
    outer loop
      vertex -39.9019 -2.5 1
      vertex -36.5 -8 1
      vertex -39.7284 -2.14805 1
    endloop
  endfacet
  facet normal -0 0 1
    outer loop
      vertex -40.1199 -2.82628 1
      vertex -36.5 -8 1
      vertex -39.9019 -2.5 1
    endloop
  endfacet
  facet normal -0 0 1
    outer loop
      vertex -40.3787 -3.12132 1
      vertex -36.5 -8 1
      vertex -40.1199 -2.82628 1
    endloop
  endfacet
  facet normal -0 0 1
    outer loop
      vertex -40.6737 -3.38006 1
      vertex -36.5 -8 1
      vertex -40.3787 -3.12132 1
    endloop
  endfacet
  facet normal -0 0 1
    outer loop
      vertex -41 -3.59808 1
      vertex -36.5 -8 1
      vertex -40.6737 -3.38006 1
    endloop
  endfacet
  facet normal -0 0 1
    outer loop
      vertex -41.352 -3.77164 1
      vertex -36.5 -8 1
      vertex -41 -3.59808 1
    endloop
  endfacet
  facet normal -0 0 1
    outer loop
      vertex -41.7235 -3.89778 1
      vertex -36.5 -8 1
      vertex -41.352 -3.77164 1
    endloop
  endfacet
  facet normal -0 0 1
    outer loop
      vertex -42.1084 -3.97433 1
      vertex -36.5 -8 1
      vertex -41.7235 -3.89778 1
    endloop
  endfacet
  facet normal -0 0 1
    outer loop
      vertex -42.5 -4 1
      vertex -36.5 -8 1
      vertex -42.1084 -3.97433 1
    endloop
  endfacet
  facet normal 0 0 1
    outer loop
      vertex -47.5 -11 1
      vertex -42.5 -4 1
      vertex -42.8916 -3.97433 1
    endloop
  endfacet
  facet normal 0 0 1
    outer loop
      vertex -47.5 -11 1
      vertex -42.8916 -3.97433 1
      vertex -43.2765 -3.89778 1
    endloop
  endfacet
  facet normal 0 0 1
    outer loop
      vertex -47.5 -11 1
      vertex -43.2765 -3.89778 1
      vertex -43.648 -3.77164 1
    endloop
  endfacet
  facet normal 0 0 1
    outer loop
      vertex -47.5 -11 1
      vertex -43.648 -3.77164 1
      vertex -44 -3.59808 1
    endloop
  endfacet
  facet normal 0 0 1
    outer loop
      vertex -47.5 -11 1
      vertex -45.5 -1 1
      vertex -47.5 11 1
    endloop
  endfacet
  facet normal 0 0 1
    outer loop
      vertex -2.5 -8 1
      vertex -47.5 -11 1
      vertex 47.5 -11 1
    endloop
  endfacet
  facet normal 0 0 1
    outer loop
      vertex -42.5 -4 1
      vertex -47.5 -11 1
      vertex -36.5 -8 1
    endloop
  endfacet
  facet normal 0 0 1
    outer loop
      vertex -44.3263 -3.38006 1
      vertex -47.5 -11 1
      vertex -44 -3.59808 1
    endloop
  endfacet
  facet normal 0 0 1
    outer loop
      vertex -44.6213 -3.12132 1
      vertex -47.5 -11 1
      vertex -44.3263 -3.38006 1
    endloop
  endfacet
  facet normal 0 0 1
    outer loop
      vertex -44.8801 -2.82628 1
      vertex -47.5 -11 1
      vertex -44.6213 -3.12132 1
    endloop
  endfacet
  facet normal 0 0 1
    outer loop
      vertex -45.0981 -2.5 1
      vertex -47.5 -11 1
      vertex -44.8801 -2.82628 1
    endloop
  endfacet
  facet normal 0 0 1
    outer loop
      vertex -45.2716 -2.14805 1
      vertex -47.5 -11 1
      vertex -45.0981 -2.5 1
    endloop
  endfacet
  facet normal 0 0 1
    outer loop
      vertex -45.3978 -1.77646 1
      vertex -47.5 -11 1
      vertex -45.2716 -2.14805 1
    endloop
  endfacet
  facet normal 0 0 1
    outer loop
      vertex -45.4743 -1.39158 1
      vertex -47.5 -11 1
      vertex -45.3978 -1.77646 1
    endloop
  endfacet
  facet normal 0 0 1
    outer loop
      vertex -45.5 -1 1
      vertex -47.5 -11 1
      vertex -45.4743 -1.39158 1
    endloop
  endfacet
  facet normal 0 0 -1
    outer loop
      vertex 47.5 -11 -1
      vertex 46 -1 -1
      vertex 47.5 11 -1
    endloop
  endfacet
  facet normal 0 0 -1
    outer loop
      vertex 47.5 -11 -1
      vertex 45.9743 -1.39158 -1
      vertex 46 -1 -1
    endloop
  endfacet
  facet normal 0 0 -1
    outer loop
      vertex 47.5 -11 -1
      vertex 45.8978 -1.77646 -1
      vertex 45.9743 -1.39158 -1
    endloop
  endfacet
  facet normal 0 0 -1
    outer loop
      vertex 47.5 -11 -1
      vertex 45.7716 -2.14805 -1
      vertex 45.8978 -1.77646 -1
    endloop
  endfacet
  facet normal 0 0 -1
    outer loop
      vertex 47.5 -11 -1
      vertex 45.5981 -2.5 -1
      vertex 45.7716 -2.14805 -1
    endloop
  endfacet
  facet normal 0 0 -1
    outer loop
      vertex 47.5 -11 -1
      vertex 45.3801 -2.82628 -1
      vertex 45.5981 -2.5 -1
    endloop
  endfacet
  facet normal 0 0 -1
    outer loop
      vertex 47.5 -11 -1
      vertex 45.1213 -3.12132 -1
      vertex 45.3801 -2.82628 -1
    endloop
  endfacet
  facet normal 0 0 -1
    outer loop
      vertex 47.5 -11 -1
      vertex 44.8263 -3.38006 -1
      vertex 45.1213 -3.12132 -1
    endloop
  endfacet
  facet normal 0 0 -1
    outer loop
      vertex 47.5 -11 -1
      vertex 44.5 -3.59808 -1
      vertex 44.8263 -3.38006 -1
    endloop
  endfacet
  facet normal 0 0 -1
    outer loop
      vertex 47.5 -11 -1
      vertex 44.148 -3.77164 -1
      vertex 44.5 -3.59808 -1
    endloop
  endfacet
  facet normal 0 0 -1
    outer loop
      vertex 47.5 -11 -1
      vertex 43.7765 -3.89778 -1
      vertex 44.148 -3.77164 -1
    endloop
  endfacet
  facet normal 0 0 -1
    outer loop
      vertex 47.5 -11 -1
      vertex 43.3916 -3.97433 -1
      vertex 43.7765 -3.89778 -1
    endloop
  endfacet
  facet normal 0 0 -1
    outer loop
      vertex 47.5 -11 -1
      vertex 43 -4 -1
      vertex 43.3916 -3.97433 -1
    endloop
  endfacet
  facet normal 0 0 -1
    outer loop
      vertex 47.5 -11 -1
      vertex 42.6084 -3.97433 -1
      vertex 43 -4 -1
    endloop
  endfacet
  facet normal 0 0 -1
    outer loop
      vertex 35.5 -8 -1
      vertex 42.6084 -3.97433 -1
      vertex 47.5 -11 -1
    endloop
  endfacet
  facet normal -0 0 -1
    outer loop
      vertex 42.6084 -3.97433 -1
      vertex 35.5 -8 -1
      vertex 42.2235 -3.89778 -1
    endloop
  endfacet
  facet normal -0 0 -1
    outer loop
      vertex 42.2235 -3.89778 -1
      vertex 35.5 -8 -1
      vertex 41.852 -3.77164 -1
    endloop
  endfacet
  facet normal -0 0 -1
    outer loop
      vertex 41.852 -3.77164 -1
      vertex 35.5 -8 -1
      vertex 41.5 -3.59808 -1
    endloop
  endfacet
  facet normal -0 0 -1
    outer loop
      vertex 41.5 -3.59808 -1
      vertex 35.5 -8 -1
      vertex 41.1737 -3.38006 -1
    endloop
  endfacet
  facet normal -0 0 -1
    outer loop
      vertex 41.1737 -3.38006 -1
      vertex 35.5 -8 -1
      vertex 40.8787 -3.12132 -1
    endloop
  endfacet
  facet normal -0 0 -1
    outer loop
      vertex 40.0257 -1.39158 -1
      vertex 35.5 -8 -1
      vertex 40 -1 -1
    endloop
  endfacet
  facet normal -0 0 -1
    outer loop
      vertex 40.1022 -1.77646 -1
      vertex 35.5 -8 -1
      vertex 40.0257 -1.39158 -1
    endloop
  endfacet
  facet normal -0 0 -1
    outer loop
      vertex 40.2284 -2.14805 -1
      vertex 35.5 -8 -1
      vertex 40.1022 -1.77646 -1
    endloop
  endfacet
  facet normal -0 0 -1
    outer loop
      vertex 40.4019 -2.5 -1
      vertex 35.5 -8 -1
      vertex 40.2284 -2.14805 -1
    endloop
  endfacet
  facet normal -0 0 -1
    outer loop
      vertex 40.6199 -2.82628 -1
      vertex 35.5 -8 -1
      vertex 40.4019 -2.5 -1
    endloop
  endfacet
  facet normal -0 0 -1
    outer loop
      vertex 40.8787 -3.12132 -1
      vertex 35.5 -8 -1
      vertex 40.6199 -2.82628 -1
    endloop
  endfacet
  facet normal 0 0 -1
    outer loop
      vertex 47.5 -11 -1
      vertex 20.5 -8 -1
      vertex 35.5 -8 -1
    endloop
  endfacet
  facet normal 0 0 -1
    outer loop
      vertex 20.5 -8 -1
      vertex 16.5 -8 -1
      vertex 20.5 8 -1
    endloop
  endfacet
  facet normal 0 0 -1
    outer loop
      vertex 47.5 -11 -1
      vertex 16.5 -8 -1
      vertex 20.5 -8 -1
    endloop
  endfacet
  facet normal 0 0 -1
    outer loop
      vertex 47.5 -11 -1
      vertex 1.5 -8 -1
      vertex 16.5 -8 -1
    endloop
  endfacet
  facet normal 0 0 -1
    outer loop
      vertex 1.5 -8 -1
      vertex -2.5 -8 -1
      vertex 1.5 8 -1
    endloop
  endfacet
  facet normal 0 0 -1
    outer loop
      vertex 47.5 -11 -1
      vertex -2.5 -8 -1
      vertex 1.5 -8 -1
    endloop
  endfacet
  facet normal 0 0 -1
    outer loop
      vertex -47.5 -11 -1
      vertex -2.5 -8 -1
      vertex 47.5 -11 -1
    endloop
  endfacet
  facet normal 0 0 -1
    outer loop
      vertex -17.5 -8 -1
      vertex -21.5 -8 -1
      vertex -17.5 8 -1
    endloop
  endfacet
  facet normal -0 0 -1
    outer loop
      vertex -2.5 -8 -1
      vertex -47.5 -11 -1
      vertex -17.5 -8 -1
    endloop
  endfacet
  facet normal -0 0 -1
    outer loop
      vertex -17.5 -8 -1
      vertex -47.5 -11 -1
      vertex -21.5 -8 -1
    endloop
  endfacet
  facet normal 0 0 -1
    outer loop
      vertex -36.5 -8 -1
      vertex -39.5 -1 -1
      vertex -36.5 8 -1
    endloop
  endfacet
  facet normal 0 0 -1
    outer loop
      vertex -36.5 -8 -1
      vertex -39.5257 -1.39158 -1
      vertex -39.5 -1 -1
    endloop
  endfacet
  facet normal 0 0 -1
    outer loop
      vertex -36.5 -8 -1
      vertex -39.6022 -1.77646 -1
      vertex -39.5257 -1.39158 -1
    endloop
  endfacet
  facet normal 0 0 -1
    outer loop
      vertex -36.5 -8 -1
      vertex -39.7284 -2.14805 -1
      vertex -39.6022 -1.77646 -1
    endloop
  endfacet
  facet normal 0 0 -1
    outer loop
      vertex -36.5 -8 -1
      vertex -39.9019 -2.5 -1
      vertex -39.7284 -2.14805 -1
    endloop
  endfacet
  facet normal 0 0 -1
    outer loop
      vertex -36.5 -8 -1
      vertex -40.1199 -2.82628 -1
      vertex -39.9019 -2.5 -1
    endloop
  endfacet
  facet normal 0 0 -1
    outer loop
      vertex -36.5 -8 -1
      vertex -40.3787 -3.12132 -1
      vertex -40.1199 -2.82628 -1
    endloop
  endfacet
  facet normal 0 0 -1
    outer loop
      vertex -36.5 -8 -1
      vertex -40.6737 -3.38006 -1
      vertex -40.3787 -3.12132 -1
    endloop
  endfacet
  facet normal 0 0 -1
    outer loop
      vertex -36.5 -8 -1
      vertex -41 -3.59808 -1
      vertex -40.6737 -3.38006 -1
    endloop
  endfacet
  facet normal 0 0 -1
    outer loop
      vertex -36.5 -8 -1
      vertex -41.352 -3.77164 -1
      vertex -41 -3.59808 -1
    endloop
  endfacet
  facet normal 0 0 -1
    outer loop
      vertex -36.5 -8 -1
      vertex -41.7235 -3.89778 -1
      vertex -41.352 -3.77164 -1
    endloop
  endfacet
  facet normal 0 0 -1
    outer loop
      vertex -36.5 -8 -1
      vertex -42.1084 -3.97433 -1
      vertex -41.7235 -3.89778 -1
    endloop
  endfacet
  facet normal 0 0 -1
    outer loop
      vertex -36.5 -8 -1
      vertex -42.5 -4 -1
      vertex -42.1084 -3.97433 -1
    endloop
  endfacet
  facet normal 0 0 -1
    outer loop
      vertex -47.5 -11 -1
      vertex -42.5 -4 -1
      vertex -36.5 -8 -1
    endloop
  endfacet
  facet normal -0 0 -1
    outer loop
      vertex -42.5 -4 -1
      vertex -47.5 -11 -1
      vertex -42.8916 -3.97433 -1
    endloop
  endfacet
  facet normal -0 0 -1
    outer loop
      vertex -42.8916 -3.97433 -1
      vertex -47.5 -11 -1
      vertex -43.2765 -3.89778 -1
    endloop
  endfacet
  facet normal -0 0 -1
    outer loop
      vertex -43.2765 -3.89778 -1
      vertex -47.5 -11 -1
      vertex -43.648 -3.77164 -1
    endloop
  endfacet
  facet normal -0 0 -1
    outer loop
      vertex -45.4743 -1.39158 -1
      vertex -47.5 -11 -1
      vertex -45.5 -1 -1
    endloop
  endfacet
  facet normal -0 0 -1
    outer loop
      vertex -45.3978 -1.77646 -1
      vertex -47.5 -11 -1
      vertex -45.4743 -1.39158 -1
    endloop
  endfacet
  facet normal -0 0 -1
    outer loop
      vertex -45.2716 -2.14805 -1
      vertex -47.5 -11 -1
      vertex -45.3978 -1.77646 -1
    endloop
  endfacet
  facet normal -0 0 -1
    outer loop
      vertex -45.0981 -2.5 -1
      vertex -47.5 -11 -1
      vertex -45.2716 -2.14805 -1
    endloop
  endfacet
  facet normal -0 0 -1
    outer loop
      vertex -44.8801 -2.82628 -1
      vertex -47.5 -11 -1
      vertex -45.0981 -2.5 -1
    endloop
  endfacet
  facet normal -0 0 -1
    outer loop
      vertex -44.6213 -3.12132 -1
      vertex -47.5 -11 -1
      vertex -44.8801 -2.82628 -1
    endloop
  endfacet
  facet normal -0 0 -1
    outer loop
      vertex -44.3263 -3.38006 -1
      vertex -47.5 -11 -1
      vertex -44.6213 -3.12132 -1
    endloop
  endfacet
  facet normal -0 0 -1
    outer loop
      vertex -44 -3.59808 -1
      vertex -47.5 -11 -1
      vertex -44.3263 -3.38006 -1
    endloop
  endfacet
  facet normal -0 0 -1
    outer loop
      vertex -43.648 -3.77164 -1
      vertex -47.5 -11 -1
      vertex -44 -3.59808 -1
    endloop
  endfacet
  facet normal -0 0 -1
    outer loop
      vertex -21.5 -8 -1
      vertex -47.5 -11 -1
      vertex -36.5 -8 -1
    endloop
  endfacet
  facet normal 0 0 -1
    outer loop
      vertex 45.9743 -0.608421 -1
      vertex 47.5 11 -1
      vertex 46 -1 -1
    endloop
  endfacet
  facet normal 0 0 -1
    outer loop
      vertex 45.8978 -0.223542 -1
      vertex 47.5 11 -1
      vertex 45.9743 -0.608421 -1
    endloop
  endfacet
  facet normal 0 0 -1
    outer loop
      vertex 45.7716 0.148049 -1
      vertex 47.5 11 -1
      vertex 45.8978 -0.223542 -1
    endloop
  endfacet
  facet normal 0 0 -1
    outer loop
      vertex 45.5981 0.5 -1
      vertex 47.5 11 -1
      vertex 45.7716 0.148049 -1
    endloop
  endfacet
  facet normal 0 0 -1
    outer loop
      vertex 45.3801 0.826283 -1
      vertex 47.5 11 -1
      vertex 45.5981 0.5 -1
    endloop
  endfacet
  facet normal 0 0 -1
    outer loop
      vertex 45.1213 1.12132 -1
      vertex 47.5 11 -1
      vertex 45.3801 0.826283 -1
    endloop
  endfacet
  facet normal 0 0 -1
    outer loop
      vertex 44.8263 1.38006 -1
      vertex 47.5 11 -1
      vertex 45.1213 1.12132 -1
    endloop
  endfacet
  facet normal 0 0 -1
    outer loop
      vertex 44.5 1.59808 -1
      vertex 47.5 11 -1
      vertex 44.8263 1.38006 -1
    endloop
  endfacet
  facet normal 0 0 -1
    outer loop
      vertex 44.148 1.77164 -1
      vertex 47.5 11 -1
      vertex 44.5 1.59808 -1
    endloop
  endfacet
  facet normal 0 0 -1
    outer loop
      vertex 43.7765 1.89778 -1
      vertex 47.5 11 -1
      vertex 44.148 1.77164 -1
    endloop
  endfacet
  facet normal 0 0 -1
    outer loop
      vertex 43.3916 1.97433 -1
      vertex 47.5 11 -1
      vertex 43.7765 1.89778 -1
    endloop
  endfacet
  facet normal 0 0 -1
    outer loop
      vertex 43 2 -1
      vertex 47.5 11 -1
      vertex 43.3916 1.97433 -1
    endloop
  endfacet
  facet normal 0 0 -1
    outer loop
      vertex 42.6084 1.97433 -1
      vertex 47.5 11 -1
      vertex 43 2 -1
    endloop
  endfacet
  facet normal 0 0 -1
    outer loop
      vertex 35.5 8 -1
      vertex 42.6084 1.97433 -1
      vertex 42.2235 1.89778 -1
    endloop
  endfacet
  facet normal 0 0 -1
    outer loop
      vertex 35.5 8 -1
      vertex 42.2235 1.89778 -1
      vertex 41.852 1.77164 -1
    endloop
  endfacet
  facet normal 0 0 -1
    outer loop
      vertex 35.5 8 -1
      vertex 41.852 1.77164 -1
      vertex 41.5 1.59808 -1
    endloop
  endfacet
  facet normal 0 0 -1
    outer loop
      vertex 35.5 8 -1
      vertex 41.5 1.59808 -1
      vertex 41.1737 1.38006 -1
    endloop
  endfacet
  facet normal 0 0 -1
    outer loop
      vertex 35.5 8 -1
      vertex 41.1737 1.38006 -1
      vertex 40.8787 1.12132 -1
    endloop
  endfacet
  facet normal 0 0 -1
    outer loop
      vertex 35.5 8 -1
      vertex 40.8787 1.12132 -1
      vertex 40.6199 0.826283 -1
    endloop
  endfacet
  facet normal 0 0 -1
    outer loop
      vertex 35.5 -8 -1
      vertex 40.0257 -0.608421 -1
      vertex 40 -1 -1
    endloop
  endfacet
  facet normal 0 0 -1
    outer loop
      vertex 35.5 8 -1
      vertex 40.0257 -0.608421 -1
      vertex 35.5 -8 -1
    endloop
  endfacet
  facet normal 0 0 -1
    outer loop
      vertex 40.0257 -0.608421 -1
      vertex 35.5 8 -1
      vertex 40.1022 -0.223542 -1
    endloop
  endfacet
  facet normal 0 0 -1
    outer loop
      vertex 40.1022 -0.223542 -1
      vertex 35.5 8 -1
      vertex 40.2284 0.148049 -1
    endloop
  endfacet
  facet normal 0 0 -1
    outer loop
      vertex 40.2284 0.148049 -1
      vertex 35.5 8 -1
      vertex 40.4019 0.5 -1
    endloop
  endfacet
  facet normal 0 0 -1
    outer loop
      vertex 35.5 8 -1
      vertex 40.6199 0.826283 -1
      vertex 40.4019 0.5 -1
    endloop
  endfacet
  facet normal 0 0 -1
    outer loop
      vertex 42.6084 1.97433 -1
      vertex 35.5 8 -1
      vertex 47.5 11 -1
    endloop
  endfacet
  facet normal 0 0 -1
    outer loop
      vertex 20.5 8 -1
      vertex 47.5 11 -1
      vertex 35.5 8 -1
    endloop
  endfacet
  facet normal 0 0 -1
    outer loop
      vertex 16.5 8 -1
      vertex 20.5 8 -1
      vertex 16.5 -8 -1
    endloop
  endfacet
  facet normal 0 0 -1
    outer loop
      vertex 16.5 8 -1
      vertex 47.5 11 -1
      vertex 20.5 8 -1
    endloop
  endfacet
  facet normal 0 0 -1
    outer loop
      vertex 1.5 8 -1
      vertex 47.5 11 -1
      vertex 16.5 8 -1
    endloop
  endfacet
  facet normal 0 0 -1
    outer loop
      vertex -2.5 8 -1
      vertex 1.5 8 -1
      vertex -2.5 -8 -1
    endloop
  endfacet
  facet normal 0 0 -1
    outer loop
      vertex -2.5 8 -1
      vertex 47.5 11 -1
      vertex 1.5 8 -1
    endloop
  endfacet
  facet normal 0 0 -1
    outer loop
      vertex -47.5 11 -1
      vertex -2.5 8 -1
      vertex -17.5 8 -1
    endloop
  endfacet
  facet normal 0 0 -1
    outer loop
      vertex -21.5 8 -1
      vertex -17.5 8 -1
      vertex -21.5 -8 -1
    endloop
  endfacet
  facet normal 0 0 -1
    outer loop
      vertex -47.5 11 -1
      vertex -17.5 8 -1
      vertex -21.5 8 -1
    endloop
  endfacet
  facet normal 0 0 -1
    outer loop
      vertex -47.5 11 -1
      vertex -21.5 8 -1
      vertex -36.5 8 -1
    endloop
  endfacet
  facet normal 0 0 -1
    outer loop
      vertex -39.5257 -0.608421 -1
      vertex -36.5 8 -1
      vertex -39.5 -1 -1
    endloop
  endfacet
  facet normal 0 0 -1
    outer loop
      vertex -39.6022 -0.223542 -1
      vertex -36.5 8 -1
      vertex -39.5257 -0.608421 -1
    endloop
  endfacet
  facet normal 0 0 -1
    outer loop
      vertex -39.7284 0.148049 -1
      vertex -36.5 8 -1
      vertex -39.6022 -0.223542 -1
    endloop
  endfacet
  facet normal 0 0 -1
    outer loop
      vertex -39.9019 0.5 -1
      vertex -36.5 8 -1
      vertex -39.7284 0.148049 -1
    endloop
  endfacet
  facet normal 0 0 -1
    outer loop
      vertex -40.1199 0.826283 -1
      vertex -36.5 8 -1
      vertex -39.9019 0.5 -1
    endloop
  endfacet
  facet normal 0 0 -1
    outer loop
      vertex -40.3787 1.12132 -1
      vertex -36.5 8 -1
      vertex -40.1199 0.826283 -1
    endloop
  endfacet
  facet normal 0 0 -1
    outer loop
      vertex -40.6737 1.38006 -1
      vertex -36.5 8 -1
      vertex -40.3787 1.12132 -1
    endloop
  endfacet
  facet normal 0 0 -1
    outer loop
      vertex -41 1.59808 -1
      vertex -36.5 8 -1
      vertex -40.6737 1.38006 -1
    endloop
  endfacet
  facet normal 0 0 -1
    outer loop
      vertex -41.352 1.77164 -1
      vertex -36.5 8 -1
      vertex -41 1.59808 -1
    endloop
  endfacet
  facet normal 0 0 -1
    outer loop
      vertex -41.7235 1.89778 -1
      vertex -36.5 8 -1
      vertex -41.352 1.77164 -1
    endloop
  endfacet
  facet normal 0 0 -1
    outer loop
      vertex -42.1084 1.97433 -1
      vertex -36.5 8 -1
      vertex -41.7235 1.89778 -1
    endloop
  endfacet
  facet normal 0 0 -1
    outer loop
      vertex -42.5 2 -1
      vertex -36.5 8 -1
      vertex -42.1084 1.97433 -1
    endloop
  endfacet
  facet normal 0 0 -1
    outer loop
      vertex -47.5 11 -1
      vertex -42.5 2 -1
      vertex -42.8916 1.97433 -1
    endloop
  endfacet
  facet normal 0 0 -1
    outer loop
      vertex -47.5 11 -1
      vertex -42.8916 1.97433 -1
      vertex -43.2765 1.89778 -1
    endloop
  endfacet
  facet normal 0 0 -1
    outer loop
      vertex -47.5 11 -1
      vertex -43.2765 1.89778 -1
      vertex -43.648 1.77164 -1
    endloop
  endfacet
  facet normal 0 0 -1
    outer loop
      vertex -47.5 11 -1
      vertex -43.648 1.77164 -1
      vertex -44 1.59808 -1
    endloop
  endfacet
  facet normal 0 0 -1
    outer loop
      vertex -47.5 11 -1
      vertex -44 1.59808 -1
      vertex -44.3263 1.38006 -1
    endloop
  endfacet
  facet normal 0 0 -1
    outer loop
      vertex -47.5 11 -1
      vertex -45.5 -1 -1
      vertex -47.5 -11 -1
    endloop
  endfacet
  facet normal 0 0 -1
    outer loop
      vertex -2.5 8 -1
      vertex -47.5 11 -1
      vertex 47.5 11 -1
    endloop
  endfacet
  facet normal 0 0 -1
    outer loop
      vertex -42.5 2 -1
      vertex -47.5 11 -1
      vertex -36.5 8 -1
    endloop
  endfacet
  facet normal 0 0 -1
    outer loop
      vertex -44.6213 1.12132 -1
      vertex -47.5 11 -1
      vertex -44.3263 1.38006 -1
    endloop
  endfacet
  facet normal 0 0 -1
    outer loop
      vertex -44.8801 0.826283 -1
      vertex -47.5 11 -1
      vertex -44.6213 1.12132 -1
    endloop
  endfacet
  facet normal 0 0 -1
    outer loop
      vertex -45.0981 0.5 -1
      vertex -47.5 11 -1
      vertex -44.8801 0.826283 -1
    endloop
  endfacet
  facet normal 0 0 -1
    outer loop
      vertex -45.2716 0.148049 -1
      vertex -47.5 11 -1
      vertex -45.0981 0.5 -1
    endloop
  endfacet
  facet normal 0 0 -1
    outer loop
      vertex -45.3978 -0.223542 -1
      vertex -47.5 11 -1
      vertex -45.2716 0.148049 -1
    endloop
  endfacet
  facet normal 0 0 -1
    outer loop
      vertex -45.4743 -0.608421 -1
      vertex -47.5 11 -1
      vertex -45.3978 -0.223542 -1
    endloop
  endfacet
  facet normal 0 0 -1
    outer loop
      vertex -45.5 -1 -1
      vertex -47.5 11 -1
      vertex -45.4743 -0.608421 -1
    endloop
  endfacet
  facet normal -1 0 0
    outer loop
      vertex -47.5 -11 -1
      vertex -47.5 11 1
      vertex -47.5 11 -1
    endloop
  endfacet
  facet normal -1 -0 0
    outer loop
      vertex -47.5 11 1
      vertex -47.5 -11 -1
      vertex -47.5 -11 1
    endloop
  endfacet
  facet normal 0 1 -0
    outer loop
      vertex 47.5 11 -1
      vertex -47.5 11 1
      vertex 47.5 11 1
    endloop
  endfacet
  facet normal 0 1 0
    outer loop
      vertex -47.5 11 1
      vertex 47.5 11 -1
      vertex -47.5 11 -1
    endloop
  endfacet
  facet normal 0 -1 0
    outer loop
      vertex -47.5 -11 -1
      vertex 47.5 -11 1
      vertex -47.5 -11 1
    endloop
  endfacet
  facet normal 0 -1 -0
    outer loop
      vertex 47.5 -11 1
      vertex -47.5 -11 -1
      vertex 47.5 -11 -1
    endloop
  endfacet
  facet normal -0.980813 -0.19495 0
    outer loop
      vertex -39.5257 -0.608421 -1
      vertex -39.6022 -0.223542 1
      vertex -39.6022 -0.223542 -1
    endloop
  endfacet
  facet normal -0.980813 -0.19495 0
    outer loop
      vertex -39.6022 -0.223542 1
      vertex -39.5257 -0.608421 -1
      vertex -39.5257 -0.608421 1
    endloop
  endfacet
  facet normal -0.997853 -0.0654908 0
    outer loop
      vertex -39.5 -1 -1
      vertex -39.5257 -0.608421 1
      vertex -39.5257 -0.608421 -1
    endloop
  endfacet
  facet normal -0.997853 -0.0654908 0
    outer loop
      vertex -39.5257 -0.608421 1
      vertex -39.5 -1 -1
      vertex -39.5 -1 1
    endloop
  endfacet
  facet normal -0.0654112 0.997858 0
    outer loop
      vertex -42.1084 -3.97433 -1
      vertex -42.5 -4 1
      vertex -42.1084 -3.97433 1
    endloop
  endfacet
  facet normal -0.0654112 0.997858 0
    outer loop
      vertex -42.5 -4 1
      vertex -42.1084 -3.97433 -1
      vertex -42.5 -4 -1
    endloop
  endfacet
  facet normal -0.831488 -0.555543 0
    outer loop
      vertex -39.9019 0.5 -1
      vertex -40.1199 0.826283 1
      vertex -40.1199 0.826283 -1
    endloop
  endfacet
  facet normal -0.831488 -0.555543 0
    outer loop
      vertex -40.1199 0.826283 1
      vertex -39.9019 0.5 -1
      vertex -39.9019 0.5 1
    endloop
  endfacet
  facet normal -0.659392 -0.751799 0
    outer loop
      vertex -40.6737 1.38006 -1
      vertex -40.3787 1.12132 1
      vertex -40.6737 1.38006 1
    endloop
  endfacet
  facet normal -0.659392 -0.751799 -0
    outer loop
      vertex -40.3787 1.12132 1
      vertex -40.6737 1.38006 -1
      vertex -40.3787 1.12132 -1
    endloop
  endfacet
  facet normal 0.831488 -0.555543 0
    outer loop
      vertex -45.0981 0.5 1
      vertex -44.8801 0.826283 -1
      vertex -44.8801 0.826283 1
    endloop
  endfacet
  facet normal 0.831488 -0.555543 0
    outer loop
      vertex -44.8801 0.826283 -1
      vertex -45.0981 0.5 1
      vertex -45.0981 0.5 -1
    endloop
  endfacet
  facet normal 0.659392 -0.751799 0
    outer loop
      vertex -44.6213 1.12132 -1
      vertex -44.3263 1.38006 1
      vertex -44.6213 1.12132 1
    endloop
  endfacet
  facet normal 0.659392 -0.751799 0
    outer loop
      vertex -44.3263 1.38006 1
      vertex -44.6213 1.12132 -1
      vertex -44.3263 1.38006 -1
    endloop
  endfacet
  facet normal 0.321514 0.946905 -0
    outer loop
      vertex -43.2765 -3.89778 -1
      vertex -43.648 -3.77164 1
      vertex -43.2765 -3.89778 1
    endloop
  endfacet
  facet normal 0.321514 0.946905 0
    outer loop
      vertex -43.648 -3.77164 1
      vertex -43.2765 -3.89778 -1
      vertex -43.648 -3.77164 -1
    endloop
  endfacet
  facet normal -0.896936 -0.442159 0
    outer loop
      vertex -39.7284 0.148049 -1
      vertex -39.9019 0.5 1
      vertex -39.9019 0.5 -1
    endloop
  endfacet
  facet normal -0.896936 -0.442159 0
    outer loop
      vertex -39.9019 0.5 1
      vertex -39.7284 0.148049 -1
      vertex -39.7284 0.148049 1
    endloop
  endfacet
  facet normal -0.659392 0.751799 0
    outer loop
      vertex -40.3787 -3.12132 -1
      vertex -40.6737 -3.38006 1
      vertex -40.3787 -3.12132 1
    endloop
  endfacet
  facet normal -0.659392 0.751799 0
    outer loop
      vertex -40.6737 -3.38006 1
      vertex -40.3787 -3.12132 -1
      vertex -40.6737 -3.38006 -1
    endloop
  endfacet
  facet normal 0.659392 0.751799 -0
    outer loop
      vertex -44.3263 -3.38006 -1
      vertex -44.6213 -3.12132 1
      vertex -44.3263 -3.38006 1
    endloop
  endfacet
  facet normal 0.659392 0.751799 0
    outer loop
      vertex -44.6213 -3.12132 1
      vertex -44.3263 -3.38006 -1
      vertex -44.6213 -3.12132 -1
    endloop
  endfacet
  facet normal -0.442233 0.8969 0
    outer loop
      vertex -41 -3.59808 -1
      vertex -41.352 -3.77164 1
      vertex -41 -3.59808 1
    endloop
  endfacet
  facet normal -0.442233 0.8969 0
    outer loop
      vertex -41.352 -3.77164 1
      vertex -41 -3.59808 -1
      vertex -41.352 -3.77164 -1
    endloop
  endfacet
  facet normal 0.831485 0.555547 0
    outer loop
      vertex -44.8801 -2.82628 1
      vertex -45.0981 -2.5 -1
      vertex -45.0981 -2.5 1
    endloop
  endfacet
  facet normal 0.831485 0.555547 0
    outer loop
      vertex -45.0981 -2.5 -1
      vertex -44.8801 -2.82628 1
      vertex -44.8801 -2.82628 -1
    endloop
  endfacet
  facet normal 0.195062 -0.980791 0
    outer loop
      vertex -43.2765 1.89778 -1
      vertex -42.8916 1.97433 1
      vertex -43.2765 1.89778 1
    endloop
  endfacet
  facet normal 0.195062 -0.980791 0
    outer loop
      vertex -42.8916 1.97433 1
      vertex -43.2765 1.89778 -1
      vertex -42.8916 1.97433 -1
    endloop
  endfacet
  facet normal -0.0654112 -0.997858 0
    outer loop
      vertex -42.5 2 -1
      vertex -42.1084 1.97433 1
      vertex -42.5 2 1
    endloop
  endfacet
  facet normal -0.0654112 -0.997858 -0
    outer loop
      vertex -42.1084 1.97433 1
      vertex -42.5 2 -1
      vertex -42.1084 1.97433 -1
    endloop
  endfacet
  facet normal -0.555558 0.831477 0
    outer loop
      vertex -40.6737 -3.38006 -1
      vertex -41 -3.59808 1
      vertex -40.6737 -3.38006 1
    endloop
  endfacet
  facet normal -0.555558 0.831477 0
    outer loop
      vertex -41 -3.59808 1
      vertex -40.6737 -3.38006 -1
      vertex -41 -3.59808 -1
    endloop
  endfacet
  facet normal 0.321514 -0.946905 0
    outer loop
      vertex -43.648 1.77164 -1
      vertex -43.2765 1.89778 1
      vertex -43.648 1.77164 1
    endloop
  endfacet
  facet normal 0.321514 -0.946905 0
    outer loop
      vertex -43.2765 1.89778 1
      vertex -43.648 1.77164 -1
      vertex -43.2765 1.89778 -1
    endloop
  endfacet
  facet normal -0.195062 0.980791 0
    outer loop
      vertex -41.7235 -3.89778 -1
      vertex -42.1084 -3.97433 1
      vertex -41.7235 -3.89778 1
    endloop
  endfacet
  facet normal -0.195062 0.980791 0
    outer loop
      vertex -42.1084 -3.97433 1
      vertex -41.7235 -3.89778 -1
      vertex -42.1084 -3.97433 -1
    endloop
  endfacet
  facet normal 0.0654112 0.997858 -0
    outer loop
      vertex -42.5 -4 -1
      vertex -42.8916 -3.97433 1
      vertex -42.5 -4 1
    endloop
  endfacet
  facet normal 0.0654112 0.997858 0
    outer loop
      vertex -42.8916 -3.97433 1
      vertex -42.5 -4 -1
      vertex -42.8916 -3.97433 -1
    endloop
  endfacet
  facet normal -0.321514 0.946905 0
    outer loop
      vertex -41.352 -3.77164 -1
      vertex -41.7235 -3.89778 1
      vertex -41.352 -3.77164 1
    endloop
  endfacet
  facet normal -0.321514 0.946905 0
    outer loop
      vertex -41.7235 -3.89778 1
      vertex -41.352 -3.77164 -1
      vertex -41.7235 -3.89778 -1
    endloop
  endfacet
  facet normal 0.751765 -0.659432 0
    outer loop
      vertex -44.8801 0.826283 1
      vertex -44.6213 1.12132 -1
      vertex -44.6213 1.12132 1
    endloop
  endfacet
  facet normal 0.751765 -0.659432 0
    outer loop
      vertex -44.6213 1.12132 -1
      vertex -44.8801 0.826283 1
      vertex -44.8801 0.826283 -1
    endloop
  endfacet
  facet normal -0.997853 0.0654906 0
    outer loop
      vertex -39.5257 -1.39158 -1
      vertex -39.5 -1 1
      vertex -39.5 -1 -1
    endloop
  endfacet
  facet normal -0.997853 0.0654906 0
    outer loop
      vertex -39.5 -1 1
      vertex -39.5257 -1.39158 -1
      vertex -39.5257 -1.39158 1
    endloop
  endfacet
  facet normal 0.442233 -0.8969 0
    outer loop
      vertex -44 1.59808 -1
      vertex -43.648 1.77164 1
      vertex -44 1.59808 1
    endloop
  endfacet
  facet normal 0.442233 -0.8969 0
    outer loop
      vertex -43.648 1.77164 1
      vertex -44 1.59808 -1
      vertex -43.648 1.77164 -1
    endloop
  endfacet
  facet normal 0.946882 0.321582 0
    outer loop
      vertex -45.2716 -2.14805 1
      vertex -45.3978 -1.77646 -1
      vertex -45.3978 -1.77646 1
    endloop
  endfacet
  facet normal 0.946882 0.321582 0
    outer loop
      vertex -45.3978 -1.77646 -1
      vertex -45.2716 -2.14805 1
      vertex -45.2716 -2.14805 -1
    endloop
  endfacet
  facet normal -0.751768 0.659428 0
    outer loop
      vertex -40.3787 -3.12132 -1
      vertex -40.1199 -2.82628 1
      vertex -40.1199 -2.82628 -1
    endloop
  endfacet
  facet normal -0.751768 0.659428 0
    outer loop
      vertex -40.1199 -2.82628 1
      vertex -40.3787 -3.12132 -1
      vertex -40.3787 -3.12132 1
    endloop
  endfacet
  facet normal -0.980813 0.19495 0
    outer loop
      vertex -39.6022 -1.77646 -1
      vertex -39.5257 -1.39158 1
      vertex -39.5257 -1.39158 -1
    endloop
  endfacet
  facet normal -0.980813 0.19495 0
    outer loop
      vertex -39.5257 -1.39158 1
      vertex -39.6022 -1.77646 -1
      vertex -39.6022 -1.77646 1
    endloop
  endfacet
  facet normal -0.442233 -0.8969 0
    outer loop
      vertex -41.352 1.77164 -1
      vertex -41 1.59808 1
      vertex -41.352 1.77164 1
    endloop
  endfacet
  facet normal -0.442233 -0.8969 -0
    outer loop
      vertex -41 1.59808 1
      vertex -41.352 1.77164 -1
      vertex -41 1.59808 -1
    endloop
  endfacet
  facet normal -0.751765 -0.659432 0
    outer loop
      vertex -40.1199 0.826283 -1
      vertex -40.3787 1.12132 1
      vertex -40.3787 1.12132 -1
    endloop
  endfacet
  facet normal -0.751765 -0.659432 0
    outer loop
      vertex -40.3787 1.12132 1
      vertex -40.1199 0.826283 -1
      vertex -40.1199 0.826283 1
    endloop
  endfacet
  facet normal 0.0654112 -0.997858 0
    outer loop
      vertex -42.8916 1.97433 -1
      vertex -42.5 2 1
      vertex -42.8916 1.97433 1
    endloop
  endfacet
  facet normal 0.0654112 -0.997858 0
    outer loop
      vertex -42.5 2 1
      vertex -42.8916 1.97433 -1
      vertex -42.5 2 -1
    endloop
  endfacet
  facet normal -0.946882 0.321582 0
    outer loop
      vertex -39.7284 -2.14805 -1
      vertex -39.6022 -1.77646 1
      vertex -39.6022 -1.77646 -1
    endloop
  endfacet
  facet normal -0.946882 0.321582 0
    outer loop
      vertex -39.6022 -1.77646 1
      vertex -39.7284 -2.14805 -1
      vertex -39.7284 -2.14805 1
    endloop
  endfacet
  facet normal -0.555558 -0.831477 0
    outer loop
      vertex -41 1.59808 -1
      vertex -40.6737 1.38006 1
      vertex -41 1.59808 1
    endloop
  endfacet
  facet normal -0.555558 -0.831477 -0
    outer loop
      vertex -40.6737 1.38006 1
      vertex -41 1.59808 -1
      vertex -40.6737 1.38006 -1
    endloop
  endfacet
  facet normal 0.896936 0.44216 0
    outer loop
      vertex -45.0981 -2.5 1
      vertex -45.2716 -2.14805 -1
      vertex -45.2716 -2.14805 1
    endloop
  endfacet
  facet normal 0.896936 0.44216 0
    outer loop
      vertex -45.2716 -2.14805 -1
      vertex -45.0981 -2.5 1
      vertex -45.0981 -2.5 -1
    endloop
  endfacet
  facet normal -0.831485 0.555547 0
    outer loop
      vertex -40.1199 -2.82628 -1
      vertex -39.9019 -2.5 1
      vertex -39.9019 -2.5 -1
    endloop
  endfacet
  facet normal -0.831485 0.555547 0
    outer loop
      vertex -39.9019 -2.5 1
      vertex -40.1199 -2.82628 -1
      vertex -40.1199 -2.82628 1
    endloop
  endfacet
  facet normal 0.555558 -0.831477 0
    outer loop
      vertex -44.3263 1.38006 -1
      vertex -44 1.59808 1
      vertex -44.3263 1.38006 1
    endloop
  endfacet
  facet normal 0.555558 -0.831477 0
    outer loop
      vertex -44 1.59808 1
      vertex -44.3263 1.38006 -1
      vertex -44 1.59808 -1
    endloop
  endfacet
  facet normal -0.896936 0.44216 0
    outer loop
      vertex -39.9019 -2.5 -1
      vertex -39.7284 -2.14805 1
      vertex -39.7284 -2.14805 -1
    endloop
  endfacet
  facet normal -0.896936 0.44216 0
    outer loop
      vertex -39.7284 -2.14805 1
      vertex -39.9019 -2.5 -1
      vertex -39.9019 -2.5 1
    endloop
  endfacet
  facet normal -0.321514 -0.946905 0
    outer loop
      vertex -41.7235 1.89778 -1
      vertex -41.352 1.77164 1
      vertex -41.7235 1.89778 1
    endloop
  endfacet
  facet normal -0.321514 -0.946905 -0
    outer loop
      vertex -41.352 1.77164 1
      vertex -41.7235 1.89778 -1
      vertex -41.352 1.77164 -1
    endloop
  endfacet
  facet normal -0.946882 -0.321581 0
    outer loop
      vertex -39.6022 -0.223542 -1
      vertex -39.7284 0.148049 1
      vertex -39.7284 0.148049 -1
    endloop
  endfacet
  facet normal -0.946882 -0.321581 0
    outer loop
      vertex -39.7284 0.148049 1
      vertex -39.6022 -0.223542 -1
      vertex -39.6022 -0.223542 1
    endloop
  endfacet
  facet normal 0.980813 0.19495 0
    outer loop
      vertex -45.3978 -1.77646 1
      vertex -45.4743 -1.39158 -1
      vertex -45.4743 -1.39158 1
    endloop
  endfacet
  facet normal 0.980813 0.19495 0
    outer loop
      vertex -45.4743 -1.39158 -1
      vertex -45.3978 -1.77646 1
      vertex -45.3978 -1.77646 -1
    endloop
  endfacet
  facet normal 0.946882 -0.321581 0
    outer loop
      vertex -45.3978 -0.223542 1
      vertex -45.2716 0.148049 -1
      vertex -45.2716 0.148049 1
    endloop
  endfacet
  facet normal 0.946882 -0.321581 0
    outer loop
      vertex -45.2716 0.148049 -1
      vertex -45.3978 -0.223542 1
      vertex -45.3978 -0.223542 -1
    endloop
  endfacet
  facet normal 0.997853 0.0654906 0
    outer loop
      vertex -45.4743 -1.39158 1
      vertex -45.5 -1 -1
      vertex -45.5 -1 1
    endloop
  endfacet
  facet normal 0.997853 0.0654906 0
    outer loop
      vertex -45.5 -1 -1
      vertex -45.4743 -1.39158 1
      vertex -45.4743 -1.39158 -1
    endloop
  endfacet
  facet normal 0.751768 0.659428 0
    outer loop
      vertex -44.6213 -3.12132 1
      vertex -44.8801 -2.82628 -1
      vertex -44.8801 -2.82628 1
    endloop
  endfacet
  facet normal 0.751768 0.659428 0
    outer loop
      vertex -44.8801 -2.82628 -1
      vertex -44.6213 -3.12132 1
      vertex -44.6213 -3.12132 -1
    endloop
  endfacet
  facet normal 0.997853 -0.0654908 0
    outer loop
      vertex -45.5 -1 1
      vertex -45.4743 -0.608421 -1
      vertex -45.4743 -0.608421 1
    endloop
  endfacet
  facet normal 0.997853 -0.0654908 0
    outer loop
      vertex -45.4743 -0.608421 -1
      vertex -45.5 -1 1
      vertex -45.5 -1 -1
    endloop
  endfacet
  facet normal 0.980813 -0.19495 0
    outer loop
      vertex -45.4743 -0.608421 1
      vertex -45.3978 -0.223542 -1
      vertex -45.3978 -0.223542 1
    endloop
  endfacet
  facet normal 0.980813 -0.19495 0
    outer loop
      vertex -45.3978 -0.223542 -1
      vertex -45.4743 -0.608421 1
      vertex -45.4743 -0.608421 -1
    endloop
  endfacet
  facet normal 0.896936 -0.442159 0
    outer loop
      vertex -45.2716 0.148049 1
      vertex -45.0981 0.5 -1
      vertex -45.0981 0.5 1
    endloop
  endfacet
  facet normal 0.896936 -0.442159 0
    outer loop
      vertex -45.0981 0.5 -1
      vertex -45.2716 0.148049 1
      vertex -45.2716 0.148049 -1
    endloop
  endfacet
  facet normal -0.195062 -0.980791 0
    outer loop
      vertex -42.1084 1.97433 -1
      vertex -41.7235 1.89778 1
      vertex -42.1084 1.97433 1
    endloop
  endfacet
  facet normal -0.195062 -0.980791 -0
    outer loop
      vertex -41.7235 1.89778 1
      vertex -42.1084 1.97433 -1
      vertex -41.7235 1.89778 -1
    endloop
  endfacet
  facet normal 0.195062 0.980791 -0
    outer loop
      vertex -42.8916 -3.97433 -1
      vertex -43.2765 -3.89778 1
      vertex -42.8916 -3.97433 1
    endloop
  endfacet
  facet normal 0.195062 0.980791 0
    outer loop
      vertex -43.2765 -3.89778 1
      vertex -42.8916 -3.97433 -1
      vertex -43.2765 -3.89778 -1
    endloop
  endfacet
  facet normal 0.442233 0.8969 -0
    outer loop
      vertex -43.648 -3.77164 -1
      vertex -44 -3.59808 1
      vertex -43.648 -3.77164 1
    endloop
  endfacet
  facet normal 0.442233 0.8969 0
    outer loop
      vertex -44 -3.59808 1
      vertex -43.648 -3.77164 -1
      vertex -44 -3.59808 -1
    endloop
  endfacet
  facet normal 0.555558 0.831477 -0
    outer loop
      vertex -44 -3.59808 -1
      vertex -44.3263 -3.38006 1
      vertex -44 -3.59808 1
    endloop
  endfacet
  facet normal 0.555558 0.831477 0
    outer loop
      vertex -44.3263 -3.38006 1
      vertex -44 -3.59808 -1
      vertex -44.3263 -3.38006 -1
    endloop
  endfacet
  facet normal -0.980813 -0.19495 0
    outer loop
      vertex 45.9743 -0.608421 -1
      vertex 45.8978 -0.223542 1
      vertex 45.8978 -0.223542 -1
    endloop
  endfacet
  facet normal -0.980813 -0.19495 0
    outer loop
      vertex 45.8978 -0.223542 1
      vertex 45.9743 -0.608421 -1
      vertex 45.9743 -0.608421 1
    endloop
  endfacet
  facet normal -0.997853 -0.0654908 0
    outer loop
      vertex 46 -1 -1
      vertex 45.9743 -0.608421 1
      vertex 45.9743 -0.608421 -1
    endloop
  endfacet
  facet normal -0.997853 -0.0654908 0
    outer loop
      vertex 45.9743 -0.608421 1
      vertex 46 -1 -1
      vertex 46 -1 1
    endloop
  endfacet
  facet normal 0.555558 -0.831477 0
    outer loop
      vertex 41.1737 1.38006 -1
      vertex 41.5 1.59808 1
      vertex 41.1737 1.38006 1
    endloop
  endfacet
  facet normal 0.555558 -0.831477 0
    outer loop
      vertex 41.5 1.59808 1
      vertex 41.1737 1.38006 -1
      vertex 41.5 1.59808 -1
    endloop
  endfacet
  facet normal -0.442233 -0.8969 0
    outer loop
      vertex 44.148 1.77164 -1
      vertex 44.5 1.59808 1
      vertex 44.148 1.77164 1
    endloop
  endfacet
  facet normal -0.442233 -0.8969 -0
    outer loop
      vertex 44.5 1.59808 1
      vertex 44.148 1.77164 -1
      vertex 44.5 1.59808 -1
    endloop
  endfacet
  facet normal 0.896936 0.44216 0
    outer loop
      vertex 40.4019 -2.5 1
      vertex 40.2284 -2.14805 -1
      vertex 40.2284 -2.14805 1
    endloop
  endfacet
  facet normal 0.896936 0.44216 0
    outer loop
      vertex 40.2284 -2.14805 -1
      vertex 40.4019 -2.5 1
      vertex 40.4019 -2.5 -1
    endloop
  endfacet
  facet normal -0.321514 -0.946905 0
    outer loop
      vertex 43.7765 1.89778 -1
      vertex 44.148 1.77164 1
      vertex 43.7765 1.89778 1
    endloop
  endfacet
  facet normal -0.321514 -0.946905 -0
    outer loop
      vertex 44.148 1.77164 1
      vertex 43.7765 1.89778 -1
      vertex 44.148 1.77164 -1
    endloop
  endfacet
  facet normal -0.946882 0.321582 0
    outer loop
      vertex 45.7716 -2.14805 -1
      vertex 45.8978 -1.77646 1
      vertex 45.8978 -1.77646 -1
    endloop
  endfacet
  facet normal -0.946882 0.321582 0
    outer loop
      vertex 45.8978 -1.77646 1
      vertex 45.7716 -2.14805 -1
      vertex 45.7716 -2.14805 1
    endloop
  endfacet
  facet normal -0.997853 0.0654906 0
    outer loop
      vertex 45.9743 -1.39158 -1
      vertex 46 -1 1
      vertex 46 -1 -1
    endloop
  endfacet
  facet normal -0.997853 0.0654906 0
    outer loop
      vertex 46 -1 1
      vertex 45.9743 -1.39158 -1
      vertex 45.9743 -1.39158 1
    endloop
  endfacet
  facet normal -0.896936 -0.442159 0
    outer loop
      vertex 45.7716 0.148049 -1
      vertex 45.5981 0.5 1
      vertex 45.5981 0.5 -1
    endloop
  endfacet
  facet normal -0.896936 -0.442159 0
    outer loop
      vertex 45.5981 0.5 1
      vertex 45.7716 0.148049 -1
      vertex 45.7716 0.148049 1
    endloop
  endfacet
  facet normal -0.659392 0.751799 0
    outer loop
      vertex 45.1213 -3.12132 -1
      vertex 44.8263 -3.38006 1
      vertex 45.1213 -3.12132 1
    endloop
  endfacet
  facet normal -0.659392 0.751799 0
    outer loop
      vertex 44.8263 -3.38006 1
      vertex 45.1213 -3.12132 -1
      vertex 44.8263 -3.38006 -1
    endloop
  endfacet
  facet normal -0.659392 -0.751799 0
    outer loop
      vertex 44.8263 1.38006 -1
      vertex 45.1213 1.12132 1
      vertex 44.8263 1.38006 1
    endloop
  endfacet
  facet normal -0.659392 -0.751799 -0
    outer loop
      vertex 45.1213 1.12132 1
      vertex 44.8263 1.38006 -1
      vertex 45.1213 1.12132 -1
    endloop
  endfacet
  facet normal 0.0654112 -0.997858 0
    outer loop
      vertex 42.6084 1.97433 -1
      vertex 43 2 1
      vertex 42.6084 1.97433 1
    endloop
  endfacet
  facet normal 0.0654112 -0.997858 0
    outer loop
      vertex 43 2 1
      vertex 42.6084 1.97433 -1
      vertex 43 2 -1
    endloop
  endfacet
  facet normal 0.442233 -0.8969 0
    outer loop
      vertex 41.5 1.59808 -1
      vertex 41.852 1.77164 1
      vertex 41.5 1.59808 1
    endloop
  endfacet
  facet normal 0.442233 -0.8969 0
    outer loop
      vertex 41.852 1.77164 1
      vertex 41.5 1.59808 -1
      vertex 41.852 1.77164 -1
    endloop
  endfacet
  facet normal 0.659392 -0.751799 0
    outer loop
      vertex 40.8787 1.12132 -1
      vertex 41.1737 1.38006 1
      vertex 40.8787 1.12132 1
    endloop
  endfacet
  facet normal 0.659392 -0.751799 0
    outer loop
      vertex 41.1737 1.38006 1
      vertex 40.8787 1.12132 -1
      vertex 41.1737 1.38006 -1
    endloop
  endfacet
  facet normal -0.831485 0.555547 0
    outer loop
      vertex 45.3801 -2.82628 -1
      vertex 45.5981 -2.5 1
      vertex 45.5981 -2.5 -1
    endloop
  endfacet
  facet normal -0.831485 0.555547 0
    outer loop
      vertex 45.5981 -2.5 1
      vertex 45.3801 -2.82628 -1
      vertex 45.3801 -2.82628 1
    endloop
  endfacet
  facet normal 0.946882 0.321582 0
    outer loop
      vertex 40.2284 -2.14805 1
      vertex 40.1022 -1.77646 -1
      vertex 40.1022 -1.77646 1
    endloop
  endfacet
  facet normal 0.946882 0.321582 0
    outer loop
      vertex 40.1022 -1.77646 -1
      vertex 40.2284 -2.14805 1
      vertex 40.2284 -2.14805 -1
    endloop
  endfacet
  facet normal 0.946882 -0.321581 0
    outer loop
      vertex 40.1022 -0.223542 1
      vertex 40.2284 0.148049 -1
      vertex 40.2284 0.148049 1
    endloop
  endfacet
  facet normal 0.946882 -0.321581 0
    outer loop
      vertex 40.2284 0.148049 -1
      vertex 40.1022 -0.223542 1
      vertex 40.1022 -0.223542 -1
    endloop
  endfacet
  facet normal -0.896936 0.44216 0
    outer loop
      vertex 45.5981 -2.5 -1
      vertex 45.7716 -2.14805 1
      vertex 45.7716 -2.14805 -1
    endloop
  endfacet
  facet normal -0.896936 0.44216 0
    outer loop
      vertex 45.7716 -2.14805 1
      vertex 45.5981 -2.5 -1
      vertex 45.5981 -2.5 1
    endloop
  endfacet
  facet normal 0.997853 0.0654906 0
    outer loop
      vertex 40.0257 -1.39158 1
      vertex 40 -1 -1
      vertex 40 -1 1
    endloop
  endfacet
  facet normal 0.997853 0.0654906 0
    outer loop
      vertex 40 -1 -1
      vertex 40.0257 -1.39158 1
      vertex 40.0257 -1.39158 -1
    endloop
  endfacet
  facet normal -0.442233 0.8969 0
    outer loop
      vertex 44.5 -3.59808 -1
      vertex 44.148 -3.77164 1
      vertex 44.5 -3.59808 1
    endloop
  endfacet
  facet normal -0.442233 0.8969 0
    outer loop
      vertex 44.148 -3.77164 1
      vertex 44.5 -3.59808 -1
      vertex 44.148 -3.77164 -1
    endloop
  endfacet
  facet normal -0.0654112 -0.997858 0
    outer loop
      vertex 43 2 -1
      vertex 43.3916 1.97433 1
      vertex 43 2 1
    endloop
  endfacet
  facet normal -0.0654112 -0.997858 -0
    outer loop
      vertex 43.3916 1.97433 1
      vertex 43 2 -1
      vertex 43.3916 1.97433 -1
    endloop
  endfacet
  facet normal 0.442233 0.8969 -0
    outer loop
      vertex 41.852 -3.77164 -1
      vertex 41.5 -3.59808 1
      vertex 41.852 -3.77164 1
    endloop
  endfacet
  facet normal 0.442233 0.8969 0
    outer loop
      vertex 41.5 -3.59808 1
      vertex 41.852 -3.77164 -1
      vertex 41.5 -3.59808 -1
    endloop
  endfacet
  facet normal -0.321514 0.946905 0
    outer loop
      vertex 44.148 -3.77164 -1
      vertex 43.7765 -3.89778 1
      vertex 44.148 -3.77164 1
    endloop
  endfacet
  facet normal -0.321514 0.946905 0
    outer loop
      vertex 43.7765 -3.89778 1
      vertex 44.148 -3.77164 -1
      vertex 43.7765 -3.89778 -1
    endloop
  endfacet
  facet normal 0.980813 -0.19495 0
    outer loop
      vertex 40.0257 -0.608421 1
      vertex 40.1022 -0.223542 -1
      vertex 40.1022 -0.223542 1
    endloop
  endfacet
  facet normal 0.980813 -0.19495 0
    outer loop
      vertex 40.1022 -0.223542 -1
      vertex 40.0257 -0.608421 1
      vertex 40.0257 -0.608421 -1
    endloop
  endfacet
  facet normal 0.751768 0.659428 0
    outer loop
      vertex 40.8787 -3.12132 1
      vertex 40.6199 -2.82628 -1
      vertex 40.6199 -2.82628 1
    endloop
  endfacet
  facet normal 0.751768 0.659428 0
    outer loop
      vertex 40.6199 -2.82628 -1
      vertex 40.8787 -3.12132 1
      vertex 40.8787 -3.12132 -1
    endloop
  endfacet
  facet normal 0.997853 -0.0654908 0
    outer loop
      vertex 40 -1 1
      vertex 40.0257 -0.608421 -1
      vertex 40.0257 -0.608421 1
    endloop
  endfacet
  facet normal 0.997853 -0.0654908 0
    outer loop
      vertex 40.0257 -0.608421 -1
      vertex 40 -1 1
      vertex 40 -1 -1
    endloop
  endfacet
  facet normal -0.555558 0.831477 0
    outer loop
      vertex 44.8263 -3.38006 -1
      vertex 44.5 -3.59808 1
      vertex 44.8263 -3.38006 1
    endloop
  endfacet
  facet normal -0.555558 0.831477 0
    outer loop
      vertex 44.5 -3.59808 1
      vertex 44.8263 -3.38006 -1
      vertex 44.5 -3.59808 -1
    endloop
  endfacet
  facet normal 0.751765 -0.659432 0
    outer loop
      vertex 40.6199 0.826283 1
      vertex 40.8787 1.12132 -1
      vertex 40.8787 1.12132 1
    endloop
  endfacet
  facet normal 0.751765 -0.659432 0
    outer loop
      vertex 40.8787 1.12132 -1
      vertex 40.6199 0.826283 1
      vertex 40.6199 0.826283 -1
    endloop
  endfacet
  facet normal 0.195062 0.980791 -0
    outer loop
      vertex 42.6084 -3.97433 -1
      vertex 42.2235 -3.89778 1
      vertex 42.6084 -3.97433 1
    endloop
  endfacet
  facet normal 0.195062 0.980791 0
    outer loop
      vertex 42.2235 -3.89778 1
      vertex 42.6084 -3.97433 -1
      vertex 42.2235 -3.89778 -1
    endloop
  endfacet
  facet normal 0.555558 0.831477 -0
    outer loop
      vertex 41.5 -3.59808 -1
      vertex 41.1737 -3.38006 1
      vertex 41.5 -3.59808 1
    endloop
  endfacet
  facet normal 0.555558 0.831477 0
    outer loop
      vertex 41.1737 -3.38006 1
      vertex 41.5 -3.59808 -1
      vertex 41.1737 -3.38006 -1
    endloop
  endfacet
  facet normal -0.751768 0.659428 0
    outer loop
      vertex 45.1213 -3.12132 -1
      vertex 45.3801 -2.82628 1
      vertex 45.3801 -2.82628 -1
    endloop
  endfacet
  facet normal -0.751768 0.659428 0
    outer loop
      vertex 45.3801 -2.82628 1
      vertex 45.1213 -3.12132 -1
      vertex 45.1213 -3.12132 1
    endloop
  endfacet
  facet normal -0.831488 -0.555543 0
    outer loop
      vertex 45.5981 0.5 -1
      vertex 45.3801 0.826283 1
      vertex 45.3801 0.826283 -1
    endloop
  endfacet
  facet normal -0.831488 -0.555543 0
    outer loop
      vertex 45.3801 0.826283 1
      vertex 45.5981 0.5 -1
      vertex 45.5981 0.5 1
    endloop
  endfacet
  facet normal -0.195062 0.980791 0
    outer loop
      vertex 43.7765 -3.89778 -1
      vertex 43.3916 -3.97433 1
      vertex 43.7765 -3.89778 1
    endloop
  endfacet
  facet normal -0.195062 0.980791 0
    outer loop
      vertex 43.3916 -3.97433 1
      vertex 43.7765 -3.89778 -1
      vertex 43.3916 -3.97433 -1
    endloop
  endfacet
  facet normal -0.555558 -0.831477 0
    outer loop
      vertex 44.5 1.59808 -1
      vertex 44.8263 1.38006 1
      vertex 44.5 1.59808 1
    endloop
  endfacet
  facet normal -0.555558 -0.831477 -0
    outer loop
      vertex 44.8263 1.38006 1
      vertex 44.5 1.59808 -1
      vertex 44.8263 1.38006 -1
    endloop
  endfacet
  facet normal -0.980813 0.19495 0
    outer loop
      vertex 45.8978 -1.77646 -1
      vertex 45.9743 -1.39158 1
      vertex 45.9743 -1.39158 -1
    endloop
  endfacet
  facet normal -0.980813 0.19495 0
    outer loop
      vertex 45.9743 -1.39158 1
      vertex 45.8978 -1.77646 -1
      vertex 45.8978 -1.77646 1
    endloop
  endfacet
  facet normal 0.831485 0.555547 0
    outer loop
      vertex 40.6199 -2.82628 1
      vertex 40.4019 -2.5 -1
      vertex 40.4019 -2.5 1
    endloop
  endfacet
  facet normal 0.831485 0.555547 0
    outer loop
      vertex 40.4019 -2.5 -1
      vertex 40.6199 -2.82628 1
      vertex 40.6199 -2.82628 -1
    endloop
  endfacet
  facet normal 0.195062 -0.980791 0
    outer loop
      vertex 42.2235 1.89778 -1
      vertex 42.6084 1.97433 1
      vertex 42.2235 1.89778 1
    endloop
  endfacet
  facet normal 0.195062 -0.980791 0
    outer loop
      vertex 42.6084 1.97433 1
      vertex 42.2235 1.89778 -1
      vertex 42.6084 1.97433 -1
    endloop
  endfacet
  facet normal -0.0654112 0.997858 0
    outer loop
      vertex 43.3916 -3.97433 -1
      vertex 43 -4 1
      vertex 43.3916 -3.97433 1
    endloop
  endfacet
  facet normal -0.0654112 0.997858 0
    outer loop
      vertex 43 -4 1
      vertex 43.3916 -3.97433 -1
      vertex 43 -4 -1
    endloop
  endfacet
  facet normal 0.980813 0.19495 0
    outer loop
      vertex 40.1022 -1.77646 1
      vertex 40.0257 -1.39158 -1
      vertex 40.0257 -1.39158 1
    endloop
  endfacet
  facet normal 0.980813 0.19495 0
    outer loop
      vertex 40.0257 -1.39158 -1
      vertex 40.1022 -1.77646 1
      vertex 40.1022 -1.77646 -1
    endloop
  endfacet
  facet normal 0.0654112 0.997858 -0
    outer loop
      vertex 43 -4 -1
      vertex 42.6084 -3.97433 1
      vertex 43 -4 1
    endloop
  endfacet
  facet normal 0.0654112 0.997858 0
    outer loop
      vertex 42.6084 -3.97433 1
      vertex 43 -4 -1
      vertex 42.6084 -3.97433 -1
    endloop
  endfacet
  facet normal -0.751765 -0.659432 0
    outer loop
      vertex 45.3801 0.826283 -1
      vertex 45.1213 1.12132 1
      vertex 45.1213 1.12132 -1
    endloop
  endfacet
  facet normal -0.751765 -0.659432 0
    outer loop
      vertex 45.1213 1.12132 1
      vertex 45.3801 0.826283 -1
      vertex 45.3801 0.826283 1
    endloop
  endfacet
  facet normal -0.946882 -0.321581 0
    outer loop
      vertex 45.8978 -0.223542 -1
      vertex 45.7716 0.148049 1
      vertex 45.7716 0.148049 -1
    endloop
  endfacet
  facet normal -0.946882 -0.321581 0
    outer loop
      vertex 45.7716 0.148049 1
      vertex 45.8978 -0.223542 -1
      vertex 45.8978 -0.223542 1
    endloop
  endfacet
  facet normal 0.321514 -0.946905 0
    outer loop
      vertex 41.852 1.77164 -1
      vertex 42.2235 1.89778 1
      vertex 41.852 1.77164 1
    endloop
  endfacet
  facet normal 0.321514 -0.946905 0
    outer loop
      vertex 42.2235 1.89778 1
      vertex 41.852 1.77164 -1
      vertex 42.2235 1.89778 -1
    endloop
  endfacet
  facet normal -0.195062 -0.980791 0
    outer loop
      vertex 43.3916 1.97433 -1
      vertex 43.7765 1.89778 1
      vertex 43.3916 1.97433 1
    endloop
  endfacet
  facet normal -0.195062 -0.980791 -0
    outer loop
      vertex 43.7765 1.89778 1
      vertex 43.3916 1.97433 -1
      vertex 43.7765 1.89778 -1
    endloop
  endfacet
  facet normal 0.831488 -0.555543 0
    outer loop
      vertex 40.4019 0.5 1
      vertex 40.6199 0.826283 -1
      vertex 40.6199 0.826283 1
    endloop
  endfacet
  facet normal 0.831488 -0.555543 0
    outer loop
      vertex 40.6199 0.826283 -1
      vertex 40.4019 0.5 1
      vertex 40.4019 0.5 -1
    endloop
  endfacet
  facet normal 0.321514 0.946905 -0
    outer loop
      vertex 42.2235 -3.89778 -1
      vertex 41.852 -3.77164 1
      vertex 42.2235 -3.89778 1
    endloop
  endfacet
  facet normal 0.321514 0.946905 0
    outer loop
      vertex 41.852 -3.77164 1
      vertex 42.2235 -3.89778 -1
      vertex 41.852 -3.77164 -1
    endloop
  endfacet
  facet normal 0.896936 -0.442159 0
    outer loop
      vertex 40.2284 0.148049 1
      vertex 40.4019 0.5 -1
      vertex 40.4019 0.5 1
    endloop
  endfacet
  facet normal 0.896936 -0.442159 0
    outer loop
      vertex 40.4019 0.5 -1
      vertex 40.2284 0.148049 1
      vertex 40.2284 0.148049 -1
    endloop
  endfacet
  facet normal 0.659392 0.751799 -0
    outer loop
      vertex 41.1737 -3.38006 -1
      vertex 40.8787 -3.12132 1
      vertex 41.1737 -3.38006 1
    endloop
  endfacet
  facet normal 0.659392 0.751799 0
    outer loop
      vertex 40.8787 -3.12132 1
      vertex 41.1737 -3.38006 -1
      vertex 40.8787 -3.12132 -1
    endloop
  endfacet
endsolid OpenSCAD_Model
