solid OpenSCAD_Model
  facet normal -1 0 0
    outer loop
      vertex -20.5 -8 -1.5
      vertex -20.5 8 1.5
      vertex -20.5 8 -1.5
    endloop
  endfacet
  facet normal -1 -0 0
    outer loop
      vertex -20.5 8 1.5
      vertex -20.5 -8 -1.5
      vertex -20.5 -8 1.5
    endloop
  endfacet
  facet normal 1 -0 0
    outer loop
      vertex -36.5 -8 1.5
      vertex -36.5 8 -1.5
      vertex -36.5 8 1.5
    endloop
  endfacet
  facet normal 1 0 0
    outer loop
      vertex -36.5 8 -1.5
      vertex -36.5 -8 1.5
      vertex -36.5 -8 -1.5
    endloop
  endfacet
  facet normal 0 1 -0
    outer loop
      vertex -20.5 -8 -1.5
      vertex -36.5 -8 1.5
      vertex -20.5 -8 1.5
    endloop
  endfacet
  facet normal 0 1 0
    outer loop
      vertex -36.5 -8 1.5
      vertex -20.5 -8 -1.5
      vertex -36.5 -8 -1.5
    endloop
  endfacet
  facet normal 0 -1 0
    outer loop
      vertex -36.5 8 -1.5
      vertex -20.5 8 1.5
      vertex -36.5 8 1.5
    endloop
  endfacet
  facet normal 0 -1 -0
    outer loop
      vertex -20.5 8 1.5
      vertex -36.5 8 -1.5
      vertex -20.5 8 -1.5
    endloop
  endfacet
  facet normal -1 0 0
    outer loop
      vertex -1.5 -8 -1.5
      vertex -1.5 8 1.5
      vertex -1.5 8 -1.5
    endloop
  endfacet
  facet normal -1 -0 0
    outer loop
      vertex -1.5 8 1.5
      vertex -1.5 -8 -1.5
      vertex -1.5 -8 1.5
    endloop
  endfacet
  facet normal 1 -0 0
    outer loop
      vertex -17.5 -8 1.5
      vertex -17.5 8 -1.5
      vertex -17.5 8 1.5
    endloop
  endfacet
  facet normal 1 0 0
    outer loop
      vertex -17.5 8 -1.5
      vertex -17.5 -8 1.5
      vertex -17.5 -8 -1.5
    endloop
  endfacet
  facet normal 0 1 -0
    outer loop
      vertex -1.5 -8 -1.5
      vertex -17.5 -8 1.5
      vertex -1.5 -8 1.5
    endloop
  endfacet
  facet normal 0 1 0
    outer loop
      vertex -17.5 -8 1.5
      vertex -1.5 -8 -1.5
      vertex -17.5 -8 -1.5
    endloop
  endfacet
  facet normal 0 -1 0
    outer loop
      vertex -17.5 8 -1.5
      vertex -1.5 8 1.5
      vertex -17.5 8 1.5
    endloop
  endfacet
  facet normal 0 -1 -0
    outer loop
      vertex -1.5 8 1.5
      vertex -17.5 8 -1.5
      vertex -1.5 8 -1.5
    endloop
  endfacet
  facet normal -1 0 0
    outer loop
      vertex 17.5 -8 -1.5
      vertex 17.5 8 1.5
      vertex 17.5 8 -1.5
    endloop
  endfacet
  facet normal -1 -0 0
    outer loop
      vertex 17.5 8 1.5
      vertex 17.5 -8 -1.5
      vertex 17.5 -8 1.5
    endloop
  endfacet
  facet normal 1 -0 0
    outer loop
      vertex 1.5 -8 1.5
      vertex 1.5 8 -1.5
      vertex 1.5 8 1.5
    endloop
  endfacet
  facet normal 1 0 0
    outer loop
      vertex 1.5 8 -1.5
      vertex 1.5 -8 1.5
      vertex 1.5 -8 -1.5
    endloop
  endfacet
  facet normal 0 1 -0
    outer loop
      vertex 17.5 -8 -1.5
      vertex 1.5 -8 1.5
      vertex 17.5 -8 1.5
    endloop
  endfacet
  facet normal 0 1 0
    outer loop
      vertex 1.5 -8 1.5
      vertex 17.5 -8 -1.5
      vertex 1.5 -8 -1.5
    endloop
  endfacet
  facet normal 0 -1 0
    outer loop
      vertex 1.5 8 -1.5
      vertex 17.5 8 1.5
      vertex 1.5 8 1.5
    endloop
  endfacet
  facet normal 0 -1 -0
    outer loop
      vertex 17.5 8 1.5
      vertex 1.5 8 -1.5
      vertex 17.5 8 -1.5
    endloop
  endfacet
  facet normal -1 0 0
    outer loop
      vertex 36.5 -8 -1.5
      vertex 36.5 8 1.5
      vertex 36.5 8 -1.5
    endloop
  endfacet
  facet normal -1 -0 0
    outer loop
      vertex 36.5 8 1.5
      vertex 36.5 -8 -1.5
      vertex 36.5 -8 1.5
    endloop
  endfacet
  facet normal 1 -0 0
    outer loop
      vertex 20.5 -8 1.5
      vertex 20.5 8 -1.5
      vertex 20.5 8 1.5
    endloop
  endfacet
  facet normal 1 0 0
    outer loop
      vertex 20.5 8 -1.5
      vertex 20.5 -8 1.5
      vertex 20.5 -8 -1.5
    endloop
  endfacet
  facet normal 0 1 -0
    outer loop
      vertex 36.5 -8 -1.5
      vertex 20.5 -8 1.5
      vertex 36.5 -8 1.5
    endloop
  endfacet
  facet normal 0 1 0
    outer loop
      vertex 20.5 -8 1.5
      vertex 36.5 -8 -1.5
      vertex 20.5 -8 -1.5
    endloop
  endfacet
  facet normal 0 -1 0
    outer loop
      vertex 20.5 8 -1.5
      vertex 36.5 8 1.5
      vertex 20.5 8 1.5
    endloop
  endfacet
  facet normal 0 -1 -0
    outer loop
      vertex 36.5 8 1.5
      vertex 20.5 8 -1.5
      vertex 36.5 8 -1.5
    endloop
  endfacet
  facet normal 0 0 -1
    outer loop
      vertex 36.5 -8 -1.5
      vertex 41.225 -14.17 -1.5
      vertex 41.225 -14.171 -1.5
    endloop
  endfacet
  facet normal 0 0 -1
    outer loop
      vertex 41.225 -14.17 -1.5
      vertex 36.5 -8 -1.5
      vertex 36.5 8 -1.5
    endloop
  endfacet
  facet normal 0 0 -1
    outer loop
      vertex 41.225 -14.171 -1.5
      vertex 20.5 -8 -1.5
      vertex 36.5 -8 -1.5
    endloop
  endfacet
  facet normal 0 0 -1
    outer loop
      vertex 20.5 -8 -1.5
      vertex 17.5 -8 -1.5
      vertex 20.5 8 -1.5
    endloop
  endfacet
  facet normal 0 0 -1
    outer loop
      vertex 41.225 -14.171 -1.5
      vertex 17.5 -8 -1.5
      vertex 20.5 -8 -1.5
    endloop
  endfacet
  facet normal 0 0 -1
    outer loop
      vertex 41.225 -14.171 -1.5
      vertex 1.5 -8 -1.5
      vertex 17.5 -8 -1.5
    endloop
  endfacet
  facet normal 0 0 -1
    outer loop
      vertex 1.5 -8 -1.5
      vertex -1.5 -8 -1.5
      vertex 1.5 8 -1.5
    endloop
  endfacet
  facet normal 0 0 -1
    outer loop
      vertex 41.225 -14.171 -1.5
      vertex -1.5 -8 -1.5
      vertex 1.5 -8 -1.5
    endloop
  endfacet
  facet normal 0 0 -1
    outer loop
      vertex -41.225 -14.171 -1.5
      vertex -1.5 -8 -1.5
      vertex 41.225 -14.171 -1.5
    endloop
  endfacet
  facet normal 0 0 -1
    outer loop
      vertex -17.5 -8 -1.5
      vertex -20.5 -8 -1.5
      vertex -17.5 8 -1.5
    endloop
  endfacet
  facet normal -0 0 -1
    outer loop
      vertex -1.5 -8 -1.5
      vertex -41.225 -14.171 -1.5
      vertex -17.5 -8 -1.5
    endloop
  endfacet
  facet normal -0 0 -1
    outer loop
      vertex -17.5 -8 -1.5
      vertex -41.225 -14.171 -1.5
      vertex -20.5 -8 -1.5
    endloop
  endfacet
  facet normal 0 0 -1
    outer loop
      vertex -41.476 14.17 -1.5
      vertex -36.5 8 -1.5
      vertex -36.5 -8 -1.5
    endloop
  endfacet
  facet normal -0 0 -1
    outer loop
      vertex -20.5 -8 -1.5
      vertex -41.225 -14.171 -1.5
      vertex -36.5 -8 -1.5
    endloop
  endfacet
  facet normal 0 0 -1
    outer loop
      vertex -41.225 -14.17 -1.5
      vertex -36.5 -8 -1.5
      vertex -41.225 -14.171 -1.5
    endloop
  endfacet
  facet normal 0 0 -1
    outer loop
      vertex -41.476 -14.17 -1.5
      vertex -36.5 -8 -1.5
      vertex -41.225 -14.17 -1.5
    endloop
  endfacet
  facet normal 0 0 -1
    outer loop
      vertex -36.5 8 -1.5
      vertex -41.476 14.17 -1.5
      vertex -40.726 14.169 -1.5
    endloop
  endfacet
  facet normal -0 0 -1
    outer loop
      vertex -36.5 -8 -1.5
      vertex -41.476 -14.17 -1.5
      vertex -41.476 14.17 -1.5
    endloop
  endfacet
  facet normal 0 0 -1
    outer loop
      vertex -40.726 14.169 -1.5
      vertex -41.476 14.17 -1.5
      vertex -40.726 14.17 -1.5
    endloop
  endfacet
  facet normal 0 0 -1
    outer loop
      vertex 41.225 -14.17 -1.5
      vertex 41.474 14.17 -1.5
      vertex 41.474 -14.17 -1.5
    endloop
  endfacet
  facet normal 0 0 -1
    outer loop
      vertex 40.724 14.169 -1.5
      vertex 41.474 14.17 -1.5
      vertex 41.225 -14.17 -1.5
    endloop
  endfacet
  facet normal -0 0 -1
    outer loop
      vertex 41.474 14.17 -1.5
      vertex 40.724 14.169 -1.5
      vertex 40.724 14.17 -1.5
    endloop
  endfacet
  facet normal 0 0 -1
    outer loop
      vertex 41.225 -14.17 -1.5
      vertex 36.5 8 -1.5
      vertex 40.724 14.169 -1.5
    endloop
  endfacet
  facet normal 0 0 -1
    outer loop
      vertex 20.5 8 -1.5
      vertex 40.724 14.169 -1.5
      vertex 36.5 8 -1.5
    endloop
  endfacet
  facet normal 0 0 -1
    outer loop
      vertex 17.5 8 -1.5
      vertex 20.5 8 -1.5
      vertex 17.5 -8 -1.5
    endloop
  endfacet
  facet normal 0 0 -1
    outer loop
      vertex 17.5 8 -1.5
      vertex 40.724 14.169 -1.5
      vertex 20.5 8 -1.5
    endloop
  endfacet
  facet normal 0 0 -1
    outer loop
      vertex 1.5 8 -1.5
      vertex 40.724 14.169 -1.5
      vertex 17.5 8 -1.5
    endloop
  endfacet
  facet normal 0 0 -1
    outer loop
      vertex -1.5 8 -1.5
      vertex 1.5 8 -1.5
      vertex -1.5 -8 -1.5
    endloop
  endfacet
  facet normal 0 0 -1
    outer loop
      vertex -1.5 8 -1.5
      vertex 40.724 14.169 -1.5
      vertex 1.5 8 -1.5
    endloop
  endfacet
  facet normal 0 0 -1
    outer loop
      vertex -40.726 14.169 -1.5
      vertex -1.5 8 -1.5
      vertex -17.5 8 -1.5
    endloop
  endfacet
  facet normal 0 0 -1
    outer loop
      vertex -20.5 8 -1.5
      vertex -17.5 8 -1.5
      vertex -20.5 -8 -1.5
    endloop
  endfacet
  facet normal 0 0 -1
    outer loop
      vertex -40.726 14.169 -1.5
      vertex -17.5 8 -1.5
      vertex -20.5 8 -1.5
    endloop
  endfacet
  facet normal 0 0 -1
    outer loop
      vertex -40.726 14.169 -1.5
      vertex -20.5 8 -1.5
      vertex -36.5 8 -1.5
    endloop
  endfacet
  facet normal 0 0 -1
    outer loop
      vertex -1.5 8 -1.5
      vertex -40.726 14.169 -1.5
      vertex 40.724 14.169 -1.5
    endloop
  endfacet
  facet normal 0 0 1
    outer loop
      vertex 40.724 13.419 1.5
      vertex 36.5 8 1.5
      vertex 40.724 -13.421 1.5
    endloop
  endfacet
  facet normal 0 0 1
    outer loop
      vertex 40.724 13.419 1.5
      vertex 20.5 8 1.5
      vertex 36.5 8 1.5
    endloop
  endfacet
  facet normal 0 0 1
    outer loop
      vertex 20.5 8 1.5
      vertex 17.5 8 1.5
      vertex 20.5 -8 1.5
    endloop
  endfacet
  facet normal 0 0 1
    outer loop
      vertex 40.724 13.419 1.5
      vertex 17.5 8 1.5
      vertex 20.5 8 1.5
    endloop
  endfacet
  facet normal 0 0 1
    outer loop
      vertex 40.724 13.419 1.5
      vertex 1.5 8 1.5
      vertex 17.5 8 1.5
    endloop
  endfacet
  facet normal 0 0 1
    outer loop
      vertex 1.5 8 1.5
      vertex -1.5 8 1.5
      vertex 1.5 -8 1.5
    endloop
  endfacet
  facet normal 0 0 1
    outer loop
      vertex 40.724 13.419 1.5
      vertex -1.5 8 1.5
      vertex 1.5 8 1.5
    endloop
  endfacet
  facet normal -0 0 1
    outer loop
      vertex -40.726 13.419 1.5
      vertex -1.5 8 1.5
      vertex 40.724 13.419 1.5
    endloop
  endfacet
  facet normal 0 0 1
    outer loop
      vertex -17.5 8 1.5
      vertex -20.5 8 1.5
      vertex -17.5 -8 1.5
    endloop
  endfacet
  facet normal 0 0 1
    outer loop
      vertex -1.5 8 1.5
      vertex -40.726 13.419 1.5
      vertex -17.5 8 1.5
    endloop
  endfacet
  facet normal 0 0 1
    outer loop
      vertex -17.5 8 1.5
      vertex -40.726 13.419 1.5
      vertex -20.5 8 1.5
    endloop
  endfacet
  facet normal 0 0 1
    outer loop
      vertex -36.5 8 1.5
      vertex -40.726 13.419 1.5
      vertex -36.5 -8 1.5
    endloop
  endfacet
  facet normal 0 0 1
    outer loop
      vertex -20.5 8 1.5
      vertex -40.726 13.419 1.5
      vertex -36.5 8 1.5
    endloop
  endfacet
  facet normal -0 0 1
    outer loop
      vertex 36.5 -8 1.5
      vertex 40.724 -13.421 1.5
      vertex 36.5 8 1.5
    endloop
  endfacet
  facet normal -0 0 1
    outer loop
      vertex 20.5 -8 1.5
      vertex 40.724 -13.421 1.5
      vertex 36.5 -8 1.5
    endloop
  endfacet
  facet normal 0 0 1
    outer loop
      vertex 17.5 -8 1.5
      vertex 20.5 -8 1.5
      vertex 17.5 8 1.5
    endloop
  endfacet
  facet normal -0 0 1
    outer loop
      vertex 17.5 -8 1.5
      vertex 40.724 -13.421 1.5
      vertex 20.5 -8 1.5
    endloop
  endfacet
  facet normal -0 0 1
    outer loop
      vertex 1.5 -8 1.5
      vertex 40.724 -13.421 1.5
      vertex 17.5 -8 1.5
    endloop
  endfacet
  facet normal 0 0 1
    outer loop
      vertex -1.5 -8 1.5
      vertex 1.5 -8 1.5
      vertex -1.5 8 1.5
    endloop
  endfacet
  facet normal -0 0 1
    outer loop
      vertex -1.5 -8 1.5
      vertex 40.724 -13.421 1.5
      vertex 1.5 -8 1.5
    endloop
  endfacet
  facet normal 0 0 1
    outer loop
      vertex -40.726 -13.421 1.5
      vertex -1.5 -8 1.5
      vertex -17.5 -8 1.5
    endloop
  endfacet
  facet normal 0 0 1
    outer loop
      vertex -20.5 -8 1.5
      vertex -17.5 -8 1.5
      vertex -20.5 8 1.5
    endloop
  endfacet
  facet normal 0 0 1
    outer loop
      vertex -40.726 -13.421 1.5
      vertex -17.5 -8 1.5
      vertex -20.5 -8 1.5
    endloop
  endfacet
  facet normal 0 0 1
    outer loop
      vertex -40.726 -13.421 1.5
      vertex -20.5 -8 1.5
      vertex -36.5 -8 1.5
    endloop
  endfacet
  facet normal 0 0 1
    outer loop
      vertex -1.5 -8 1.5
      vertex -40.726 -13.421 1.5
      vertex 40.724 -13.421 1.5
    endloop
  endfacet
  facet normal 0 0 1
    outer loop
      vertex -40.726 -13.421 1.5
      vertex -36.5 -8 1.5
      vertex -40.726 13.419 1.5
    endloop
  endfacet
  facet normal -1 0 0
    outer loop
      vertex -41.225 13.419 8
      vertex -41.225 14.169 15.5
      vertex -41.225 14.169 8
    endloop
  endfacet
  facet normal -1 -0 0
    outer loop
      vertex -41.225 14.169 15.5
      vertex -41.225 13.419 8
      vertex -41.225 13.419 15.5
    endloop
  endfacet
  facet normal 1 -0 0
    outer loop
      vertex 41.225 13.419 15.5
      vertex 41.225 14.169 8
      vertex 41.225 14.169 15.5
    endloop
  endfacet
  facet normal 1 0 0
    outer loop
      vertex 41.225 14.169 8
      vertex 41.225 13.419 15.5
      vertex 41.225 13.419 8
    endloop
  endfacet
  facet normal 0 1 -0
    outer loop
      vertex 40.724 14.169 -1.5
      vertex -40.726 14.169 8
      vertex 40.724 14.169 8
    endloop
  endfacet
  facet normal 0 1 0
    outer loop
      vertex -40.726 14.169 8
      vertex 40.724 14.169 -1.5
      vertex -40.726 14.169 -1.5
    endloop
  endfacet
  facet normal 0 1 0
    outer loop
      vertex 40.724 14.169 8
      vertex 41.225 14.169 15.5
      vertex 41.225 14.169 8
    endloop
  endfacet
  facet normal 0 1 0
    outer loop
      vertex 41.225 14.169 15.5
      vertex 40.724 14.169 8
      vertex -41.225 14.169 15.5
    endloop
  endfacet
  facet normal 0 1 -0
    outer loop
      vertex -40.726 14.169 8
      vertex -41.225 14.169 15.5
      vertex 40.724 14.169 8
    endloop
  endfacet
  facet normal 0 1 0
    outer loop
      vertex -41.225 14.169 15.5
      vertex -40.726 14.169 8
      vertex -41.225 14.169 8
    endloop
  endfacet
  facet normal 0 -1 0
    outer loop
      vertex -40.726 13.419 1.5
      vertex 40.724 13.419 8
      vertex -40.726 13.419 8
    endloop
  endfacet
  facet normal 0 -1 -0
    outer loop
      vertex 40.724 13.419 8
      vertex -40.726 13.419 1.5
      vertex 40.724 13.419 1.5
    endloop
  endfacet
  facet normal 0 -1 0
    outer loop
      vertex -40.726 13.419 8
      vertex -41.225 13.419 15.5
      vertex -41.225 13.419 8
    endloop
  endfacet
  facet normal 0 -1 0
    outer loop
      vertex -41.225 13.419 15.5
      vertex -40.726 13.419 8
      vertex 41.225 13.419 15.5
    endloop
  endfacet
  facet normal 0 -1 0
    outer loop
      vertex 40.724 13.419 8
      vertex 41.225 13.419 15.5
      vertex -40.726 13.419 8
    endloop
  endfacet
  facet normal 0 -1 -0
    outer loop
      vertex 41.225 13.419 15.5
      vertex 40.724 13.419 8
      vertex 41.225 13.419 8
    endloop
  endfacet
  facet normal -0 0 1
    outer loop
      vertex -41.225 14.169 15.5
      vertex 41.225 13.419 15.5
      vertex 41.225 14.169 15.5
    endloop
  endfacet
  facet normal 0 0 1
    outer loop
      vertex 41.225 13.419 15.5
      vertex -41.225 14.169 15.5
      vertex -41.225 13.419 15.5
    endloop
  endfacet
  facet normal -1 0 0
    outer loop
      vertex -41.225 -14.17 -1.5
      vertex -41.225 -14.171 -1.5
      vertex -41.225 -14.17 8
    endloop
  endfacet
  facet normal -1 0 0
    outer loop
      vertex -41.225 -14.17 8
      vertex -41.225 -13.421 15.5
      vertex -41.225 -13.421 8
    endloop
  endfacet
  facet normal -1 0 0
    outer loop
      vertex -41.225 -14.17 8
      vertex -41.225 -14.171 15.5
      vertex -41.225 -13.421 15.5
    endloop
  endfacet
  facet normal -1 0 0
    outer loop
      vertex -41.225 -14.171 15.5
      vertex -41.225 -14.17 8
      vertex -41.225 -14.171 -1.5
    endloop
  endfacet
  facet normal 1 0 0
    outer loop
      vertex 41.225 -13.421 15.5
      vertex 41.225 -14.17 8
      vertex 41.225 -13.421 8
    endloop
  endfacet
  facet normal 1 -0 0
    outer loop
      vertex 41.225 -14.171 15.5
      vertex 41.225 -14.17 8
      vertex 41.225 -13.421 15.5
    endloop
  endfacet
  facet normal 1 0 0
    outer loop
      vertex 41.225 -14.171 -1.5
      vertex 41.225 -14.17 8
      vertex 41.225 -14.171 15.5
    endloop
  endfacet
  facet normal 1 0 0
    outer loop
      vertex 41.225 -14.17 8
      vertex 41.225 -14.171 -1.5
      vertex 41.225 -14.17 -1.5
    endloop
  endfacet
  facet normal 0 1 -0
    outer loop
      vertex 40.724 -13.421 1.5
      vertex -40.726 -13.421 8
      vertex 40.724 -13.421 8
    endloop
  endfacet
  facet normal 0 1 0
    outer loop
      vertex -40.726 -13.421 8
      vertex 40.724 -13.421 1.5
      vertex -40.726 -13.421 1.5
    endloop
  endfacet
  facet normal 0 1 0
    outer loop
      vertex 40.724 -13.421 8
      vertex 41.225 -13.421 15.5
      vertex 41.225 -13.421 8
    endloop
  endfacet
  facet normal 0 1 0
    outer loop
      vertex 41.225 -13.421 15.5
      vertex 40.724 -13.421 8
      vertex -41.225 -13.421 15.5
    endloop
  endfacet
  facet normal 0 1 -0
    outer loop
      vertex -40.726 -13.421 8
      vertex -41.225 -13.421 15.5
      vertex 40.724 -13.421 8
    endloop
  endfacet
  facet normal 0 1 0
    outer loop
      vertex -41.225 -13.421 15.5
      vertex -40.726 -13.421 8
      vertex -41.225 -13.421 8
    endloop
  endfacet
  facet normal 0 -1 0
    outer loop
      vertex -41.225 -14.171 -1.5
      vertex 41.225 -14.171 15.5
      vertex -41.225 -14.171 15.5
    endloop
  endfacet
  facet normal 0 -1 -0
    outer loop
      vertex 41.225 -14.171 15.5
      vertex -41.225 -14.171 -1.5
      vertex 41.225 -14.171 -1.5
    endloop
  endfacet
  facet normal -0 0 1
    outer loop
      vertex -41.225 -13.421 15.5
      vertex 41.225 -14.171 15.5
      vertex 41.225 -13.421 15.5
    endloop
  endfacet
  facet normal 0 0 1
    outer loop
      vertex 41.225 -14.171 15.5
      vertex -41.225 -13.421 15.5
      vertex -41.225 -14.171 15.5
    endloop
  endfacet
  facet normal 0 -1 0
    outer loop
      vertex 41.225 -14.17 -1.5
      vertex 41.474 -14.17 8
      vertex 41.225 -14.17 8
    endloop
  endfacet
  facet normal 0 -1 -0
    outer loop
      vertex 41.474 -14.17 8
      vertex 41.225 -14.17 -1.5
      vertex 41.474 -14.17 -1.5
    endloop
  endfacet
  facet normal 1 -0 0
    outer loop
      vertex 41.474 -14.17 8
      vertex 41.474 14.17 -1.5
      vertex 41.474 14.17 8
    endloop
  endfacet
  facet normal 1 0 0
    outer loop
      vertex 41.474 14.17 -1.5
      vertex 41.474 -14.17 8
      vertex 41.474 -14.17 -1.5
    endloop
  endfacet
  facet normal -1 0 0
    outer loop
      vertex 40.724 14.169 -1.5
      vertex 40.724 14.17 8
      vertex 40.724 14.17 -1.5
    endloop
  endfacet
  facet normal -1 -0 0
    outer loop
      vertex 40.724 14.17 8
      vertex 40.724 14.169 -1.5
      vertex 40.724 14.169 8
    endloop
  endfacet
  facet normal -1 0 0
    outer loop
      vertex 40.724 -13.421 1.5
      vertex 40.724 13.419 8
      vertex 40.724 13.419 1.5
    endloop
  endfacet
  facet normal -1 -0 0
    outer loop
      vertex 40.724 13.419 8
      vertex 40.724 -13.421 1.5
      vertex 40.724 -13.421 8
    endloop
  endfacet
  facet normal 0 1 -0
    outer loop
      vertex 41.474 14.17 -1.5
      vertex 40.724 14.17 8
      vertex 41.474 14.17 8
    endloop
  endfacet
  facet normal 0 1 0
    outer loop
      vertex 40.724 14.17 8
      vertex 41.474 14.17 -1.5
      vertex 40.724 14.17 -1.5
    endloop
  endfacet
  facet normal -0 0 1
    outer loop
      vertex 40.724 13.419 8
      vertex 41.225 -13.421 8
      vertex 41.225 13.419 8
    endloop
  endfacet
  facet normal 0 0 1
    outer loop
      vertex 41.225 -13.421 8
      vertex 40.724 13.419 8
      vertex 40.724 -13.421 8
    endloop
  endfacet
  facet normal 0 0 1
    outer loop
      vertex 41.225 13.419 8
      vertex 41.474 14.17 8
      vertex 41.225 14.169 8
    endloop
  endfacet
  facet normal -0 0 1
    outer loop
      vertex 40.724 14.17 8
      vertex 41.225 14.169 8
      vertex 41.474 14.17 8
    endloop
  endfacet
  facet normal 0 0 1
    outer loop
      vertex 41.225 14.169 8
      vertex 40.724 14.17 8
      vertex 40.724 14.169 8
    endloop
  endfacet
  facet normal 0 0 1
    outer loop
      vertex 41.474 14.17 8
      vertex 41.225 13.419 8
      vertex 41.474 -14.17 8
    endloop
  endfacet
  facet normal -0 0 1
    outer loop
      vertex 41.225 -13.421 8
      vertex 41.474 -14.17 8
      vertex 41.225 13.419 8
    endloop
  endfacet
  facet normal 0 0 1
    outer loop
      vertex 41.474 -14.17 8
      vertex 41.225 -13.421 8
      vertex 41.225 -14.17 8
    endloop
  endfacet
  facet normal 0 -1 0
    outer loop
      vertex -41.476 -14.17 -1.5
      vertex -41.225 -14.17 8
      vertex -41.476 -14.17 8
    endloop
  endfacet
  facet normal 0 -1 -0
    outer loop
      vertex -41.225 -14.17 8
      vertex -41.476 -14.17 -1.5
      vertex -41.225 -14.17 -1.5
    endloop
  endfacet
  facet normal 1 -0 0
    outer loop
      vertex -40.726 14.169 8
      vertex -40.726 14.17 -1.5
      vertex -40.726 14.17 8
    endloop
  endfacet
  facet normal 1 0 0
    outer loop
      vertex -40.726 14.17 -1.5
      vertex -40.726 14.169 8
      vertex -40.726 14.169 -1.5
    endloop
  endfacet
  facet normal 1 -0 0
    outer loop
      vertex -40.726 -13.421 8
      vertex -40.726 13.419 1.5
      vertex -40.726 13.419 8
    endloop
  endfacet
  facet normal 1 0 0
    outer loop
      vertex -40.726 13.419 1.5
      vertex -40.726 -13.421 8
      vertex -40.726 -13.421 1.5
    endloop
  endfacet
  facet normal -1 0 0
    outer loop
      vertex -41.476 -14.17 -1.5
      vertex -41.476 14.17 8
      vertex -41.476 14.17 -1.5
    endloop
  endfacet
  facet normal -1 -0 0
    outer loop
      vertex -41.476 14.17 8
      vertex -41.476 -14.17 -1.5
      vertex -41.476 -14.17 8
    endloop
  endfacet
  facet normal 0 1 -0
    outer loop
      vertex -40.726 14.17 -1.5
      vertex -41.476 14.17 8
      vertex -40.726 14.17 8
    endloop
  endfacet
  facet normal 0 1 0
    outer loop
      vertex -41.476 14.17 8
      vertex -40.726 14.17 -1.5
      vertex -41.476 14.17 -1.5
    endloop
  endfacet
  facet normal 0 0 1
    outer loop
      vertex -40.726 14.17 8
      vertex -41.225 14.169 8
      vertex -40.726 14.169 8
    endloop
  endfacet
  facet normal 0 0 1
    outer loop
      vertex -41.476 14.17 8
      vertex -41.225 13.419 8
      vertex -41.225 14.169 8
    endloop
  endfacet
  facet normal 0 0 1
    outer loop
      vertex -41.225 13.419 8
      vertex -41.476 14.17 8
      vertex -41.225 -13.421 8
    endloop
  endfacet
  facet normal -0 0 1
    outer loop
      vertex -41.476 14.17 8
      vertex -41.225 14.169 8
      vertex -40.726 14.17 8
    endloop
  endfacet
  facet normal 0 0 1
    outer loop
      vertex -41.476 -14.17 8
      vertex -41.225 -13.421 8
      vertex -41.476 14.17 8
    endloop
  endfacet
  facet normal 0 0 1
    outer loop
      vertex -41.225 -13.421 8
      vertex -41.476 -14.17 8
      vertex -41.225 -14.17 8
    endloop
  endfacet
  facet normal -0 0 1
    outer loop
      vertex -41.225 13.419 8
      vertex -40.726 -13.421 8
      vertex -40.726 13.419 8
    endloop
  endfacet
  facet normal 0 0 1
    outer loop
      vertex -40.726 -13.421 8
      vertex -41.225 13.419 8
      vertex -41.225 -13.421 8
    endloop
  endfacet
endsolid OpenSCAD_Model
